<?xml version="1.0" encoding="utf-8"?>
<!-- Generator: Adobe Illustrator 21.0.0, SVG Export Plug-In . SVG Version: 6.00 Build 0)  -->
<svg version="1.1"
	 id="svg2" inkscape:version="0.48.0 r9654" sodipodi:docname="logo.svg" xmlns:cc="http://creativecommons.org/ns#" xmlns:dc="http://purl.org/dc/elements/1.1/" xmlns:inkscape="http://www.inkscape.org/namespaces/inkscape" xmlns:rdf="http://www.w3.org/1999/02/22-rdf-syntax-ns#" xmlns:sodipodi="http://sodipodi.sourceforge.net/DTD/sodipodi-0.dtd" xmlns:svg="http://www.w3.org/2000/svg"
	 xmlns="http://www.w3.org/2000/svg" xmlns:xlink="http://www.w3.org/1999/xlink" x="0px" y="0px" viewBox="0 0 34 34"
	 style="enable-background:new 0 0 34 34;" xml:space="preserve">
<style type="text/css">
	.st0{fill:#D33833;}
	.st1{fill:#EF3D3A;}
	.st2{fill:#231F20;}
	.st3{fill:#F0D6B7;}
	.st4{fill:#335061;}
	.st5{fill:#6D6B6D;}
	.st6{fill:#DCD9D8;}
	.st7{fill:#F7E4CD;}
	.st8{fill:#49728B;}
	.st9{fill:#FFFFFF;}
	.st10{fill:none;stroke:#D33833;stroke-width:0.2128;}
	.st11{fill:#81B0C4;}
	.st12{fill:#1D1919;}
</style>
<sodipodi:namedview  bordercolor="#666666" borderopacity="1" gridtolerance="10" guidetolerance="10" id="namedview4" inkscape:current-layer="g10" inkscape:cx="-65.859116" inkscape:cy="172.53076" inkscape:pageopacity="0" inkscape:pageshadow="2" inkscape:window-height="844" inkscape:window-maximized="0" inkscape:window-width="1500" inkscape:window-x="2189" inkscape:window-y="496" inkscape:zoom="1" objecttolerance="10" pagecolor="#ffffff" showgrid="false">
	</sodipodi:namedview>
<g id="g10" transform="matrix(1.25,0,0,-1.25,0,312)" inkscape:groupmode="layer" inkscape:label="ink_ext_XXXXXX">
</g>
<g id="g10_1_" transform="matrix(1.25,0,0,-1.25,0,312)" inkscape:groupmode="layer" inkscape:label="ink_ext_XXXXXX">
	<g id="g3393">
		<path id="path22" inkscape:connector-curvature="0" class="st0" d="M22.7,236.4c0-5.3-4.2-9.5-9.3-9.5c-5.1,0-9.3,4.3-9.3,9.5
			c0,5.3,4.2,9.5,9.3,9.5C18.6,245.9,22.7,241.7,22.7,236.4"/>
		<path id="path24" inkscape:connector-curvature="0" class="st1" d="M4.5,234.1c0,0-0.7,9.9,8.5,10.2l-0.6,1.1l-5-1.7L5.9,242
			l-1.2-2.4L4,236.9l0.2-1.8"/>
		<path id="path26" inkscape:connector-curvature="0" class="st2" d="M7,242.9c-1.6-1.7-2.6-4-2.6-6.5l0,0c0-2.6,1-4.9,2.6-6.5l0,0
			c1.6-1.7,3.9-2.7,6.4-2.7l0,0c2.5,0,4.7,1,6.4,2.7l0,0c1.6,1.7,2.6,4,2.6,6.5l0,0c0,2.6-1,4.9-2.6,6.5l0,0
			c-1.6,1.7-3.9,2.7-6.4,2.7l0,0C10.9,245.6,8.7,244.6,7,242.9L7,242.9z M6.6,229.5c-1.7,1.8-2.8,4.2-2.8,6.9l0,0
			c0,2.7,1.1,5.2,2.8,6.9l0,0c1.7,1.8,4.1,2.9,6.8,2.9l0,0c2.7,0,5.1-1.1,6.8-2.9l0,0c1.7-1.8,2.8-4.2,2.8-6.9l0,0
			c0-2.7-1.1-5.2-2.8-6.9l0,0c-1.7-1.8-4.1-2.9-6.8-2.9l0,0C10.8,226.6,8.4,227.7,6.6,229.5L6.6,229.5"/>
		<path id="path28" inkscape:connector-curvature="0" class="st3" d="M17.3,236.4l-1.4-0.2l-1.9-0.2l-1.2,0l-1.2,0l-0.9,0.3
			l-0.8,0.9l-0.6,1.8L9,239.3l-0.9,0.3l-0.5,0.8l-0.4,1.2l0.4,1l0.9,0.3l0.7-0.4l0.4-0.8l0.4,0.1l0.1,0.2l-0.1,0.8l0,1l0.2,1.4
			l0,0.8l0.6,1l1.1,0.8l2,0.9l2.2-0.3l1.9-1.4l0.9-1.4l0.6-1l0.1-2.6l-0.4-2.2l-0.8-2l-0.7-1"/>
		<path id="path30" inkscape:connector-curvature="0" class="st4" d="M16.1,230.2l-5.1-0.2v-0.9l0.4-3l-0.2-0.2l-3.5,1.2l-0.2,0.4
			l-0.4,4L6.3,234l-0.2,0.6l2.8,2l0.9,0.4l0.8-1l0.7-0.6l0.8-0.2l0.4-0.1l0.4-1.8l0.3-0.4L14,233l-0.6-1.1l3.1-1.5L16.1,230.2"/>
		<path id="path32" inkscape:connector-curvature="0" class="st5" d="M7.7,242.6l0.9,0.3l0.7-0.4l0.4-0.8l0.4,0.1l0.1,0.4l-0.2,0.8
			l0.2,2l-0.2,1.1l0.6,0.7l1.4,1.1l-0.4,0.5l-2-1L9,246.9l-0.5-1l-0.7-1l-0.2-1.1L7.7,242.6"/>
		<path id="path34" inkscape:connector-curvature="0" class="st6" d="M9.2,245.9c0,0,0.5,1.3,2.7,2s0.1,0.5,0.1,0.5l-2.3-0.9
			l-0.9-0.9l-0.4-0.7L9.2,245.9"/>
		<path id="path36" inkscape:connector-curvature="0" class="st6" d="M8.1,242.9c0,0-0.7,2.5,2.1,2.8l-0.1,0.4l-2-0.5l-0.6-1.8
			l0.1-1.2L8.1,242.9"/>
		<path id="path38" inkscape:connector-curvature="0" class="st7" d="M9.2,239.6l0.5,0.4c0,0,0.2,0,0.2-0.3c0-0.2,0.1-2.5,1.7-3.7
			c0.1-0.1-1.1,0.2-1.1,0.2L9.4,238"/>
		<path id="path40" inkscape:connector-curvature="0" class="st7" d="M15.8,240.2c0,0,0.1,1.1,0.4,1c0.3-0.1,0.3-0.4,0.3-0.4
			S15.7,240.4,15.8,240.2"/>
		<path id="path42" inkscape:connector-curvature="0" class="st7" d="M18.7,244.2c0,0-0.6-0.1-0.6-0.6c-0.1-0.5,0.6-0.1,0.7-0.1"/>
		<path id="path44" inkscape:connector-curvature="0" class="st7" d="M14.4,244.1c0,0-0.8-0.1-0.8-0.6c0-0.5,0.9-0.5,1.1-0.2"/>
		<path id="path46" inkscape:connector-curvature="0" class="st7" d="M9.6,241.8c0,0-1.3,0.8-1.5,0c-0.1-0.8-0.5-1.3,0.2-2.2
			l-0.5,0.1l-0.4,1.1L7.3,242l0.8,0.9l0.9-0.1l0.5-0.4L9.6,241.8"/>
		<path id="path48" inkscape:connector-curvature="0" class="st7" d="M10.2,244.1c0,0,0.6,3.1,3.7,3.7c2.5,0.5,3.8-0.1,4.3-0.7
			c0,0-2.2,2.7-4.4,1.8c-2.1-0.8-3.7-2.3-3.7-3.3C10.3,244.1,10.2,244.1,10.2,244.1"/>
		<path id="path50" inkscape:connector-curvature="0" class="st7" d="M18.5,246.8c0,0-1,0-1.1-0.9c0,0,0-0.1,0.1-0.3
			c0,0,0.8,0.9,1.3,0.4"/>
		<path id="path52" inkscape:connector-curvature="0" class="st7" d="M14,245.5c0,0-0.2,1.4-1.4,0.6c-0.8-0.5-0.7-1.3-0.6-1.4
			c0.1-0.1,0.1-0.4,0.2-0.2c0.1,0.2,0.1,0.8,0.5,1C13.1,245.6,13.7,245.8,14,245.5"/>
		<path id="path54" inkscape:connector-curvature="0" class="st8" d="M10.6,235.9l-3.3-1.5c0,0,1.4-5.5,0.7-7.2l-0.5,0.2l0,2.1
			l-0.9,4l-0.4,1.1l3.5,2.3L10.6,235.9"/>
		<path id="path56" inkscape:connector-curvature="0" class="st8" d="M11,232.9l0.5-0.6v-2.1h-0.6c0,0-0.1,1.5-0.1,1.7
			c0,0.2,0.1,0.8,0.1,0.8"/>
		<path id="path58" inkscape:connector-curvature="0" class="st8" d="M11,229.8l-1.6-0.1l0.5-0.3l1.1-0.2"/>
		<path id="path60" inkscape:connector-curvature="0" class="st4" d="M16.4,230.2l1.3,0l0.3-3.3l-1.3-0.2L16.4,230.2"/>
		<path id="path62" inkscape:connector-curvature="0" class="st4" d="M16.8,230.2l2,0.1c0,0,0.8,2.1,0.8,2.2c0,0.1,0.7,3,0.7,3
			l-1.6,1.7l-0.3,0.3l-0.9-0.9v-3.3L16.8,230.2"/>
		<path id="path64" inkscape:connector-curvature="0" class="st8" d="M17.7,230.4l-1.2-0.2l0.2-1c0.5-0.2,1.2,0.4,1.2,0.4"/>
		<path id="path66" inkscape:connector-curvature="0" class="st8" d="M17.7,236.7l2.5-1.8l0.1,0.9l-1.9,1.7L17.7,236.7"/>
		<path id="path68" inkscape:connector-curvature="0" class="st9" d="M12.2,223.2l-0.7,3l-0.4,2.2l-0.1,1.6l3.3,0.2l2.1,0l-0.2-3.7
			l0.3-2.9l0-0.5l-2.7-0.2L12.2,223.2"/>
		<path id="path70" inkscape:connector-curvature="0" class="st6" d="M16,230.2c0,0-0.2-3.7,0.4-6.3c0,0-1.1-0.7-2.6-0.9l3,0.1
			l0.4,0.2l-0.4,5.8l-0.1,1.2"/>
		<path id="path72" inkscape:connector-curvature="0" class="st9" d="M18.1,227.3l1.4,0.4l2.6,0.1l0.4,1.2l-0.7,2.1l-0.8,0.1
			l-1.1-0.4l-1.1-0.5l-0.6,0.1l-0.5-0.2"/>
		<path id="path74" inkscape:connector-curvature="0" class="st6" d="M18.1,228c0,0,0.9,0.4,1.1,0.4l-0.4,2l0.5,0.2
			c0,0,0.3-1.8,0.3-2.1c0,0,2-0.1,2.2-0.1c0,0,0.4,0.8,0.3,1.7l0.4-1.1l0-0.6l-0.6-0.9l-0.6-0.1l-1.1,0l-0.4,0.5l-1.2-0.2l-0.4-0.1"
			/>
		<path id="path76" inkscape:connector-curvature="0" class="st9" d="M16.7,230.5l-0.8,2l-0.8,1.2c0,0,0.2,0.5,0.4,0.5
			c0.2,0,0.8,0,0.8,0l0.8-0.3l-0.1-1.3L16.7,230.5"/>
		<path id="path78" inkscape:connector-curvature="0" class="st6" d="M16.9,231.2c0,0-1,1.9-1,2.2c0,0,0.2,0.4,0.4,0.3
			c0.2-0.1,0.8-0.4,0.8-0.4v0.7l-1.2,0.2l-0.8-0.1l1.4-3.3l0.3,0"/>
		<path id="path80" inkscape:connector-curvature="0" class="st9" d="M12.5,235.8l-1,0.1l-0.9,0.3v-0.3l0.5-0.5l1.4-0.6"/>
		<path id="path82" inkscape:connector-curvature="0" class="st6" d="M11,235.7c0,0,1.1-0.5,1.5-0.4l0-0.4l-1,0.2l-0.6,0.4L11,235.7
			"/>
		<path id="path84" inkscape:connector-curvature="0" class="st0" d="M18.1,234c-0.6,0-1.1,0.1-1.6,0.2c0,0.2,0,0.4,0,0.5
			c0.1,0.1,0.4,0.1,0.6,0.1c-0.2,0.1-0.4,0.1-0.6,0.1c0,0.1-0.1,0.2-0.1,0.3c0.3,0.1,1.1,0.9,1.6,0.7c0.2-0.1,0.3-0.8,0.3-1.2
			C18.3,234.5,18.3,234.2,18.1,234"/>
		<path id="path86" inkscape:connector-curvature="0" class="st10" d="M18.1,234c-0.6,0-1.1,0.1-1.6,0.2c0,0.2,0,0.4,0,0.5
			c0.1,0.1,0.4,0.1,0.6,0.1c-0.2,0.1-0.4,0.1-0.6,0.1c0,0.1-0.1,0.2-0.1,0.3c0.3,0.1,1.1,0.9,1.6,0.7c0.2-0.1,0.3-0.8,0.3-1.2
			C18.3,234.5,18.3,234.2,18.1,234z"/>
		<path id="path88" inkscape:connector-curvature="0" class="st0" d="M15.3,235c0,0,0-0.1,0-0.1c-0.2-0.1-0.5-0.1-0.7-0.2
			c0.3,0,0.5-0.1,0.8-0.2c0-0.1,0-0.2,0-0.3c-0.3-0.2-0.7-0.6-1.1-0.8c-0.2-0.1-0.9-0.4-1.1-0.3c-0.1,0-0.1,0.2-0.2,0.3
			c-0.1,0.3-0.3,0.7-0.3,1.2c0,0.5-0.1,1.5,0.5,1.4c0.5-0.1,1-0.3,1.4-0.5C14.8,235.2,14.9,235,15.3,235"/>
		<path id="path90" inkscape:connector-curvature="0" class="st10" d="M15.3,235c0,0,0-0.1,0-0.1c-0.2-0.1-0.5-0.1-0.7-0.2
			c0.3,0,0.5-0.1,0.8-0.2c0-0.1,0-0.2,0-0.3c-0.3-0.2-0.7-0.6-1.1-0.8c-0.2-0.1-0.9-0.4-1.1-0.3c-0.1,0-0.1,0.2-0.2,0.3
			c-0.1,0.3-0.3,0.7-0.3,1.2c0,0.5-0.1,1.5,0.5,1.4c0.5-0.1,1-0.3,1.4-0.5C14.8,235.2,14.9,235,15.3,235z"/>
		<path id="path92" inkscape:connector-curvature="0" class="st0" d="M15.6,234.3c-0.1,0.3-0.1,0.4-0.1,0.6
			C16.3,235.5,16.5,234.1,15.6,234.3"/>
		<path id="path94" inkscape:connector-curvature="0" class="st10" d="M15.6,234.3c-0.1,0.3-0.1,0.4-0.1,0.6
			C16.3,235.5,16.5,234.1,15.6,234.3z"/>
		<path id="path96" inkscape:connector-curvature="0" class="st1" d="M16.8,234.1c0,0-0.2,0.4-0.1,0.5s0.4,0,0.5,0.2s0,0.3,0,0.5
			c0,0.2,0.2,0.2,0.4,0.3c0.2,0,0.7,0.1,0.7-0.1l-0.2,0.6l-0.4,0.1l-1.3-0.8l-0.1-0.4v-0.8"/>
		<path id="path98" inkscape:connector-curvature="0" class="st1" d="M13,232.9c0,0.6-0.1,1.1-0.1,1.7c-0.1,0.8,0.2,0.7,0.9,0.7
			c0.1,0,0.7-0.1,0.7-0.2c0.2-0.4-0.3-0.3,0.2-0.6c0.5-0.3,1.3,0.2,1.1,0.7c-0.1,0.1-0.5,0-0.7,0.1c-0.3,0.1-0.6,0.3-0.8,0.4
			c-0.4,0.2-1.2,0.4-1.5,0.2c-1-0.6,0.1-2.3,0.4-2.9"/>
		<path id="path100" inkscape:connector-curvature="0" class="st2" d="M14,245.5c-1,0.2-1.4-0.4-1.7-1.1c-0.3,0.1-0.2,0.4-0.1,0.6
			c0.2,0.5,0.9,1.1,1.4,1C13.8,246,14.2,245.8,14,245.5"/>
		<path id="path102" inkscape:connector-curvature="0" class="st2" d="M18.7,244.4C18.7,244.4,18.7,244.4,18.7,244.4
			c0.3-0.5,0.5-0.9,0.7-1.3c-0.2-0.4-1.4-0.8-1.4,0c0.3,0.1,0.7,0,0.9,0.2C18.8,243.6,18.6,243.9,18.7,244.4"/>
		<path id="path104" inkscape:connector-curvature="0" class="st2" d="M14.5,244.4c0.2-0.4,0.3-0.8,0.6-1.1c0.1-0.1,0.4-0.3,0.3-0.6
			c0-0.1-0.2-0.3-0.4-0.3c-0.5-0.1-1.5,0-1.2,0.5c0.4,0,0.9-0.2,1.2,0C14.7,243.3,14.3,244,14.5,244.4"/>
		<path id="path106" inkscape:connector-curvature="0" class="st2" d="M18.5,240.5c-0.7-0.4-1.5-0.9-2.6-0.8c-0.2,0.2-0.3,0.7-0.1,1
			c0.1-0.2,0-0.6,0.4-0.7c0.6-0.1,1.4,0.4,1.9,0.6c0.3,0.5,0,0.7-0.3,1c-0.5,0.6-1.2,1.4-1.2,2.4c0.2,0.2,0.2-0.2,0.3-0.3
			c0.3-0.6,1-1.5,1.5-2c0.1-0.1,0.3-0.3,0.4-0.4C18.7,241,18.5,240.7,18.5,240.5"/>
		<path id="path108" inkscape:connector-curvature="0" class="st2" d="M9.4,241c-0.2,0.1-0.3,0.7-0.5,0.7c-0.4,0-0.3-0.7-0.3-1.1
			c-0.3,0.2-0.3,0.9-0.1,1.3c-0.2,0.1-0.3-0.1-0.4-0.2C8.2,242.7,9.6,242.1,9.4,241"/>
		<path id="path110" inkscape:connector-curvature="0" class="st2" d="M18.9,240.1c-0.3-0.6-0.8-1.3-1.7-1.3c0,0.2,0,0.5,0,0.6
			C17.9,239.4,18.4,239.8,18.9,240.1"/>
		<path id="path112" inkscape:connector-curvature="0" class="st2" d="M14.4,239.7c0.6-0.3,1.7-0.4,2.5-0.3c0-0.2,0-0.4,0-0.6
			C15.9,238.7,14.7,238.9,14.4,239.7"/>
		<path id="path114" inkscape:connector-curvature="0" class="st2" d="M14.3,239.1c0.4-1,1.9-0.9,3.1-0.9c-0.1-0.1-0.2-0.3-0.3-0.4
			c-0.4-0.2-1.5-0.3-2,0c-0.3,0.2-0.6,0.6-0.7,0.8C14.2,238.8,13.8,239.1,14.3,239.1"/>
		<path id="path116" inkscape:connector-curvature="0" class="st11" d="M18.5,233.3c-0.5-0.8-1-1.7-1.5-2.4c0.2,0.7,0.3,1.9,0.4,2.8
			C17.8,233.9,18.2,233.6,18.5,233.3"/>
		<path id="path118" inkscape:connector-curvature="0" class="st2" d="M21.1,230.3c-0.5-0.1-0.9-0.6-1.5-0.6
			C19.9,230.1,20.4,230.3,21.1,230.3"/>
		<path id="path120" inkscape:connector-curvature="0" class="st2" d="M21.3,229.4c-0.4,0-1-0.1-1.4-0.1
			C20.1,229.7,21,229.5,21.3,229.4"/>
		<path id="path122" inkscape:connector-curvature="0" class="st2" d="M21.5,228.7c-0.5,0-1.1,0-1.6,0
			C20.2,229,21.2,228.8,21.5,228.7"/>
		<path id="path124" inkscape:connector-curvature="0" class="st6" d="M17.5,226.6c0.1-0.6,0.3-1.3,0.3-2c-0.3-0.1-0.4-0.2-0.8-0.2
			c0,0.6-0.1,1.5-0.1,2C17.1,226.5,17.4,226.7,17.5,226.6"/>
		<path id="path126" inkscape:connector-curvature="0" class="st3" d="M16.7,236c-0.3-0.2-0.5-0.4-0.7-0.5c-0.5,0-0.8,0-1.2,0.3
			c0,0,0,0,0,0C15.4,235.5,16.1,235.9,16.7,236"/>
		<path id="path128" inkscape:connector-curvature="0" class="st11" d="M13.7,232c0.2,0.7,0.8,1,1.3,1.4c0.6-0.7,0.9-1.7,1.3-2.6
			C15.4,231.1,14.5,231.6,13.7,232"/>
		<path id="path130" inkscape:connector-curvature="0" class="st2" d="M16.9,226.6c0-0.6,0.1-1.5,0.1-2c0.4,0,0.5,0.1,0.8,0.2
			c0,0.7-0.2,1.3-0.3,2C17.4,226.7,17.1,226.5,16.9,226.6z M11.1,229.7c0.2-2.3,0.6-4.2,1.3-6.2c1.4-0.4,3.2-0.5,4.5-0.1
			c-0.2,1.1-0.1,2.5-0.3,3.7c-0.1,0.9-0.1,1.8-0.2,2.7C14.8,230.3,12.6,230,11.1,229.7z M16.7,229.9c0-1,0-1.9,0.1-2.9
			c0.4,0.1,0.6,0.1,1,0.2c-0.1,0.9-0.1,2-0.3,2.8C17.2,230,17,230,16.7,229.9z M18.6,230.1c-0.2,0-0.4,0-0.6,0
			c0.1-0.8,0.3-1.7,0.3-2.5c0.3,0,0.4,0.1,0.6,0.2C19.1,228.5,19,229.5,18.6,230.1L18.6,230.1z M21.5,227.5c0.6,0.1,0.9,0.8,0.7,1.5
			c-0.1,0.5-0.3,1.3-0.5,1.6c-0.1,0.2-0.5,0.5-0.9,0.3c-0.5-0.3-1.4-0.4-1.8-0.8c0.2-0.6,0.2-1.5,0.3-2.3c0.6,0,1.4,0.2,2-0.1
			c-0.4-0.1-0.9-0.1-1.2-0.3C20.5,227.4,21.1,227.4,21.5,227.5L21.5,227.5z M16.3,230.8c-0.4,0.9-0.7,1.9-1.3,2.6
			c-0.6-0.4-1.2-0.7-1.3-1.4C14.5,231.6,15.4,231.1,16.3,230.8z M17.3,233.7c0-0.9-0.1-2.1-0.4-2.8c0.6,0.7,1.1,1.6,1.5,2.4
			C18.2,233.6,17.8,233.9,17.3,233.7z M16.2,234.1c-0.2,0-0.4-0.3-0.7-0.1c-0.1-0.1-0.1-0.2-0.2-0.2c0.6-0.8,0.9-1.8,1.4-2.7
			c0.3,0.9,0.2,1.8,0.3,2.7C16.7,233.7,16.5,234,16.2,234.1z M15.5,235c0-0.3,0-0.3,0.1-0.6C16.5,234.1,16.3,235.5,15.5,235z
			 M14.6,235.3c-0.4,0.2-0.9,0.4-1.4,0.5c-0.6,0.1-0.5-0.8-0.5-1.4c0-0.4,0.2-0.9,0.3-1.2c0-0.1,0.1-0.3,0.2-0.3
			c0.2,0,0.9,0.2,1.1,0.3c0.4,0.2,0.7,0.6,1.1,0.8c0,0.1,0,0.2,0,0.3c-0.2,0.1-0.4,0.2-0.8,0.2c0.2,0.1,0.5,0.1,0.7,0.2
			c0,0,0,0.1,0,0.1C14.9,235,14.8,235.2,14.6,235.3z M11,235.9c-0.3-0.3,0.9-0.7,1.2-0.8c0,0.2,0.1,0.4,0.1,0.5
			C11.9,235.8,11.3,235.7,11,235.9z M14.8,235.8C14.8,235.8,14.8,235.8,14.8,235.8c0.3-0.4,0.6-0.4,1.2-0.4c0.2,0.2,0.5,0.4,0.7,0.5
			C16.1,235.9,15.4,235.5,14.8,235.8z M18.3,234.7c0,0.3-0.1,1.1-0.3,1.2c-0.4,0.3-1.2-0.5-1.6-0.7c0-0.1,0.1-0.2,0.1-0.3
			c0.2,0,0.4,0,0.6-0.1c-0.2,0-0.4,0-0.6-0.1c0-0.1,0-0.3,0-0.5c0.5-0.1,1-0.2,1.6-0.2C18.3,234.2,18.3,234.5,18.3,234.7z
			 M10.5,235.6c-0.1,0.1-0.7,0.9-0.8,0.9c-1.2-0.5-2.3-1.3-3.3-2c0.9-2,1.3-4.5,1.4-6.9c1.1-0.5,2-1.2,3.5-1.3
			c-0.2,1.2-0.3,2.3-0.4,3.4c-0.4,0.2-0.9,0-1.2,0c0,0.4,0.5,0.2,0.6,0.5c0,0.2-0.3,0.2-0.2,0.6c0.3-0.1,0.4-0.3,0.7-0.4
			c0.3,0.6,0,1.6,0,2.1c0,0.1,0,0.5,0.2,0.4c0.2-0.1,0-1.1,0-1.5c0-0.4-0.1-0.8,0.1-1.1c1.4,0.2,2.8,0.3,4.4,0.4
			c-0.3,0.1-0.7,0.3-1.2,0.5c-0.2,0.1-1,0.4-1.1,0.6c-0.1,0.4,0.3,0.6,0.4,0.9c-0.7-0.4-0.9,0.4-1,0.9c-0.2,0.5-0.2,0.9-0.3,1.1
			C11.7,235,11,235.3,10.5,235.6L10.5,235.6z M17.7,236.4c1,0.5,1.2-1.8,0.8-2.5c0.1-0.2,0.3-0.3,0.3-0.5c-0.5-1-1.2-1.9-1.7-2.9
			c0.4,0.3,1,0,1.5,0.2c0.2,0.1,0.3,0.5,0.4,0.8c0.4,0.9,0.8,2,0.9,2.9c0,0.2,0.1,0.6,0.1,0.8c0,0.3-0.5,0.5-0.7,0.7
			c-0.4,0.4-0.6,0.7-1.1,1C18.2,236.8,17.8,236.6,17.7,236.4L17.7,236.4z M8.3,245.1c-0.5-0.5-0.4-1.5-0.3-2.2c0.8,0.5,2,0,2-0.9
			c0.4,0,0.2,0.5,0.1,0.8c-0.2,1,0.4,2.2,0,3.1C9.3,245.9,8.7,245.6,8.3,245.1L8.3,245.1z M11.6,248.1c-1.1-0.3-2.4-1.1-2.9-2
			c0.3,0,0.6,0.2,0.9,0.2c0.1,0,0.3-0.1,0.4,0c0.3,0.1,0.5,0.7,0.7,1c0.2,0.2,0.5,0.3,0.6,0.5c0.1,0.1,0.3,0.1,0.3,0.2
			C11.7,248.1,11.7,248.2,11.6,248.1z M17.1,247.9c-1.1,0.6-3,1.1-4.1,0.5c-0.9-0.5-2.2-1.3-2.7-2.2c0.4-1-0.1-1.8-0.2-2.8
			c0-0.5,0.2-1,0.3-1.5c-0.1-0.2-0.6-0.3-0.9-0.2c-0.1,0.5-0.3,1.1-0.8,1.1c-0.7,0.1-1.3-0.5-1.3-1.1c0-0.7,0.6-2,1.4-1.9
			c0.3,0,0.4,0.4,0.8,0.4c0.2-0.4-0.3-0.5-0.4-0.8c0-0.1,0-0.4,0.1-0.5c0.2-0.6,0.5-1.5,0.8-2c0.4-0.6,1.3-0.7,2.2-0.8
			c0.2,0.4,0.8,0.3,1.2,0.2c-0.5,0.2-0.9,0.6-1.3,1c-0.4,0.5-0.8,0.9-0.9,1.5c0.8-1.1,1.4-2,2.9-2.5c1.1-0.4,2.3,0.2,3.2,0.7
			c0.3,0.2,0.6,0.6,0.8,1c0.9,1.3,1.3,3.2,1.3,5c0,0.8,0,1.5-0.3,2c-0.3,0.5-1.2,1-1.7,0.5c-0.1,0.5,0.4,0.8,1.1,0.6
			C18.2,246.8,17.8,247.5,17.1,247.9L17.1,247.9z M19.2,230.9c0.9,0.4,2.5,1.2,3,0c0.2-0.4,0.4-1.1,0.5-1.6c0.1-0.6-0.2-1.9-0.8-2.1
			c-0.6-0.2-1.2-0.2-1.9,0c-0.1,0.1-0.2,0.2-0.2,0.3c-0.5,0-0.9,0-1.3-0.2c0-0.4-0.2-0.4-0.4-0.5c-0.2-0.7,0.3-1.5,0.2-2.1
			c-0.1-0.4-0.6-0.5-1-0.6c0-0.2,0-0.4,0-0.6c-0.1-0.3-0.5-0.5-0.9-0.6c-1.3-0.2-3.2-0.2-4.4,0.2c-0.3,0.8-0.6,1.8-0.9,2.8
			c-1.2-0.1-2.1,0.5-3,0.9c-0.3,0.1-0.7,0.2-0.9,0.5c-0.1,0.2-0.1,0.7-0.1,1.1c-0.1,1.1-0.1,2.2-0.4,3.3c-0.1,0.5-0.4,1-0.5,1.4
			c-0.1,0.5-0.4,1-0.5,1.5c-0.1,0.7,0.5,0.7,0.9,1c0.6,0.4,1.1,0.7,1.8,1.1c0.2,0.1,0.8,0.4,0.9,0.6c0.1,0.3-0.2,0.7-0.3,0.9
			c-0.2,0.3-0.2,0.6-0.3,1c-0.6,0.1-1,0.4-1.3,0.8c-0.4,0.6-0.7,1.8-0.4,2.7c0,0.1,0.2,0.2,0.2,0.3c0,0.2-0.1,0.5-0.1,0.7
			c0,1.2,0.2,2.1,1,2.5c0.3,1.3,1.4,1.7,2.5,2.3c0.4,0.2,0.8,0.4,1.3,0.5c1.6,0.6,4.1,0.5,5.4-0.5c0.6-0.4,1.5-1.3,1.8-2
			c0.9-1.7,0.8-4.6,0.2-6.8c-0.1-0.3-0.2-0.7-0.4-1c-0.1-0.2-0.5-0.7-0.4-0.9c0-0.2,0.8-0.8,1-1c0.3-0.3,0.9-0.7,0.9-1
			c0-0.4-0.2-0.9-0.3-1.3C20,233.1,19.6,232,19.2,230.9"/>
		<path id="path132" inkscape:connector-curvature="0" class="st7" d="M13.4,239.4c0,0.1,0.3,0.2,0.7,0c0,0-0.4-0.1-0.4-0.8l-0.2,0
			C13.5,238.6,13.4,239.3,13.4,239.4"/>
		<path id="path134" inkscape:connector-curvature="0" class="st12" d="M16.6,233.3c0-0.1-0.1-0.2-0.2-0.2c-0.1,0-0.2,0.1-0.2,0.2
			s0.1,0.2,0.2,0.2C16.5,233.5,16.6,233.4,16.6,233.3"/>
		<path id="path136" inkscape:connector-curvature="0" class="st12" d="M16.8,232.4c0-0.1-0.1-0.2-0.2-0.2c-0.1,0-0.2,0.1-0.2,0.2
			s0.1,0.2,0.2,0.2C16.7,232.6,16.8,232.5,16.8,232.4"/>
	</g>
</g>
</svg>
