<svg id="Layer_1" data-name="Layer 1" xmlns="http://www.w3.org/2000/svg" viewBox="0 0 442 243.5"><defs><style>.cls-1,.cls-10{fill:#fff;}.cls-1,.cls-6{stroke:#5aaafa;}.cls-1,.cls-14,.cls-6{stroke-miterlimit:10;}.cls-2{fill:#eec02b;}.cls-3{fill:#1cb3a0;}.cls-4{fill:#975ad1;}.cls-5{fill:#fc42a0;}.cls-14,.cls-23,.cls-32,.cls-6{fill:none;}.cls-32,.cls-6{stroke-width:2px;}.cls-7{fill:#5aaafa;}.cls-8{fill:#231f20;}.cls-9{fill:#fcc215;}.cls-11{fill:#00b198;}.cls-12{fill:#00aed1;}.cls-13{fill:#3b4b54;}.cls-14{stroke:#fff;stroke-width:0.5px;}.cls-15,.cls-22{fill:#9cdaf0;}.cls-15,.cls-17{opacity:0.77;}.cls-15,.cls-17,.cls-20{isolation:isolate;}.cls-16{opacity:0.35;}.cls-17,.cls-18{fill:#201f1f;}.cls-19{fill:#f4cab1;}.cls-20,.cls-21{fill:#ac5c51;}.cls-20{opacity:0.5;}.cls-24{fill:#d33833;}.cls-25{fill:#ef3d3a;}.cls-26{fill:#f0d6b7;}.cls-27{fill:#335061;}.cls-28{fill:#6d6b6d;}.cls-29{fill:#dcd9d8;}.cls-30{fill:#f7e4cd;}.cls-31{fill:#49728b;}.cls-32{stroke:#d33833;}.cls-33{fill:#81b0c4;}.cls-34{fill:#1d1919;}.cls-35{font-size:10px;font-family:HelveticaNeue-Bold, Helvetica Neue;font-weight:700;}.cls-36{fill:#fc5255;}.cls-37{letter-spacing:-0.09em;}.cls-38{letter-spacing:0em;}.cls-39{letter-spacing:-0.04em;}.cls-40{fill:#ecb32d;}.cls-41{fill:#63c1a0;}.cls-42{fill:#e01a59;}.cls-43{fill:#331433;}.cls-44{fill:#d62027;}.cls-45{fill:#89d3df;}.cls-46{fill:#258b74;}.cls-47{fill:#819c3c;}</style></defs><title>Jenkins-toolchain</title><circle class="cls-1" cx="130.9" cy="86.5" r="26.5"/><circle class="cls-1" cx="44.3" cy="86.8" r="26.5"/><rect class="cls-2" width="83.5" height="4.5"/><rect class="cls-3" x="89.7" width="83.5" height="4.5"/><rect class="cls-4" x="179.7" width="83.5" height="4.5"/><rect class="cls-5" x="268.8" width="83.5" height="4.5"/><circle class="cls-1" cx="221.1" cy="86.5" r="26.5"/><circle class="cls-1" cx="310.6" cy="86.5" r="26.5"/><polyline class="cls-6" points="43.8 52.8 43.8 42 130.5 42 130.5 55"/><polygon class="cls-7" points="48.8 51.4 43.8 60 38.8 51.4 48.8 51.4"/><line class="cls-6" x1="130.5" y1="168" x2="130.5" y2="149"/><line class="cls-6" x1="175.6" y1="86.5" x2="165.3" y2="86.5"/><polygon class="cls-7" points="174.2 81.5 182.8 86.5 174.2 91.5 174.2 81.5"/><line class="cls-6" x1="267.1" y1="86.5" x2="256.8" y2="86.5"/><polygon class="cls-7" points="265.7 81.5 274.3 86.5 265.7 91.5 265.7 81.5"/><line class="cls-6" x1="357.1" y1="86.5" x2="346.8" y2="86.5"/><polygon class="cls-7" points="355.7 81.5 364.3 86.5 355.7 91.5 355.7 81.5"/><circle class="cls-1" cx="130.5" cy="201.9" r="26.5"/><path id="_Path_" data-name="&lt;Path&gt;" class="cls-8" d="M140,216.8H120.8a5,5,0,0,1-5-5V192.2a5,5,0,0,1,5-5h19.3a5,5,0,0,1,5,4.9v19.4A5.23,5.23,0,0,1,140,216.8Z"/><circle id="_Path_2" data-name="&lt;Path&gt;" class="cls-9" cx="139.2" cy="195.4" r="2.8"/><circle id="_Path_3" data-name="&lt;Path&gt;" class="cls-9" cx="135.2" cy="202.2" r="2.8"/><circle id="_Path_4" data-name="&lt;Path&gt;" class="cls-9" cx="131.2" cy="209" r="2.8"/><path id="_Path_5" data-name="&lt;Path&gt;" class="cls-10" d="M131.1,204.8h-.4a.27.27,0,0,1-.3-.3v-4.9a.27.27,0,0,1,.3-.3h.4a.27.27,0,0,1,.3.3v4.8C131.5,204.6,131.3,204.8,131.1,204.8Z"/><path id="_Path_6" data-name="&lt;Path&gt;" class="cls-10" d="M143.4,199.3h0a.47.47,0,0,0-.5.5v3.1l-2.6-3.4h0l-.1-.1h-.3a.78.78,0,0,0-.4.4v.1h0v4.4a.47.47,0,0,0,.5.5h0a.47.47,0,0,0,.5-.5v-2.9l2.6,3.3.2.2h.2c.2,0,.4-.3.4-.5v-4.6A.47.47,0,0,0,143.4,199.3Z"/><path id="_Compound_Path_" data-name="&lt;Compound Path&gt;" class="cls-10" d="M120.9,196.6a4.32,4.32,0,1,0,3.9,4.3A4.15,4.15,0,0,0,120.9,196.6Zm0,7.8a3.27,3.27,0,0,1-3.2-3.4,3.36,3.36,0,0,1,3.2-3.5,3.46,3.46,0,0,1,0,6.9Z"/><path id="_Compound_Path_2" data-name="&lt;Compound Path&gt;" class="cls-10" d="M129,201.1v-.3a1.54,1.54,0,0,0-1.5-1.5h-1.2a.47.47,0,0,0-.5.5v4.4a.47.47,0,0,0,.5.5h0a.47.47,0,0,0,.5-.5v-1.3l1.2,1.6a.49.49,0,0,0,.7.1h0a.49.49,0,0,0,.1-.7l-1-1.4A1.4,1.4,0,0,0,129,201.1Zm-.8-.1a.79.79,0,0,1-.8.8h-.6v-1.6h.6c.4-.1.8.3.8.8Z"/><polygon class="cls-11" points="310.6 86.5 306.4 79.2 310.6 72 319 72 323.1 79.2 319 86.5 310.6 86.5"/><polygon class="cls-12" points="310.6 101.6 306.4 94.4 310.6 87.1 319 87.1 323.1 94.4 319 101.6 310.6 101.6"/><polygon class="cls-13" points="297.5 94 293.3 86.7 297.5 79.5 305.9 79.5 310.1 86.7 305.9 94 297.5 94"/><circle class="cls-14" cx="310.4" cy="86.7" r="8.3"/><polygon class="cls-14" points="306.1 79.5 306.1 94 318.7 86.7 306.1 79.5"/><path class="cls-15" d="M56.4,99.9c0,2.3-5.1,4.1-11.5,4.1s-11.5-1.8-11.5-4.1,5.1-4,11.5-4S56.4,97.7,56.4,99.9Z"/><g class="cls-16"><path class="cls-17" d="M45.9,100.6a1.6,1.6,0,0,0-.7.9.75.75,0,0,0-.1.5v2.1a17,17,0,0,0,2.1-.1v-1.7a1.09,1.09,0,0,1,.1-.5c.1-.3,0-.4.2-.6s.1-.1.1-.2Z"/><path class="cls-17" d="M51,99.4h0c-.1-.2-.4-.2-.8-.2a2.6,2.6,0,0,0-2.5,1.4h.2l-.2.4h-.1v.1h0v2.8l1.9-.2v-2.2a4.33,4.33,0,0,1,.1-.5,2.09,2.09,0,0,1,.4-.6,4.23,4.23,0,0,1,.7-.5C50.9,99.8,51.1,99.6,51,99.4Z"/></g><g class="cls-16"><path class="cls-17" d="M41.7,103.9a1.27,1.27,0,0,1,.6.1h0a1.27,1.27,0,0,0-.6-.1Z"/><path class="cls-17" d="M44.4,102.5v-.6c0-.2-.1-.3-.1-.5a2,2,0,0,0-1.5-1.3v.7h-1c.2.1,0,0,.3.3s.1.3.2.6,0,.3.1.5v1.7a14.77,14.77,0,0,0,2.1.1v-1.5Z"/><path class="cls-17" d="M41.7,103.9h0V101h0c0-.2-.1-.3-.1-.5A2.61,2.61,0,0,0,39,99c-.4,0-.7,0-.8.2h0c-.1.2.1.4.3.5a4.23,4.23,0,0,1,.7.5,2.09,2.09,0,0,1,.4.6,4.33,4.33,0,0,1,.1.5v2.1"/></g><path class="cls-18" d="M58.3,83.7a36.61,36.61,0,0,1,6.9.7v-.2a33.71,33.71,0,0,0-6.6-.6,19.27,19.27,0,0,0-2.4.1,11.1,11.1,0,0,0,.4-3.8,8.14,8.14,0,0,0-2.3-6,7.31,7.31,0,0,0-.3-4.7s-2-.2-5,1.9a16.35,16.35,0,0,0-4.5-.5,16.14,16.14,0,0,0-4.9.7h0a9.13,9.13,0,0,0-5.2-2s-1.2,3-.2,5.1h0a7.89,7.89,0,0,0-1.8,7.9c.2.6.3,1.2.5,1.7-.7,0-1.4-.1-2.1-.1a27.28,27.28,0,0,0-6.6.7v.2a29.3,29.3,0,0,1,6.9-.7,12.1,12.1,0,0,1,1.9.1c.1.3.3.6.4.9a23.48,23.48,0,0,0-2.6.1,30.6,30.6,0,0,0-6.5,1v.2a27.63,27.63,0,0,1,6.8-1.1c.8,0,1.6-.1,2.3-.1,1.6,2.7,4.1,3.8,7.9,4.1a3.12,3.12,0,0,0-1.6,2.4c-4.5,1.8-4.5-2.4-7-3.1a.9.9,0,0,0-.5-.1c-.5-.1-1,0-1.1.2h0v.1c0,.1,0,.1.1.2a1.23,1.23,0,0,0,.8.5c.3.2.7.5.9.6,1.5,1.7,1.7,4.8,6.8,3.8v3.9a4.33,4.33,0,0,1-.1.5,2.09,2.09,0,0,1-.4.6,4.23,4.23,0,0,1-.7.5c-.2.1-.4.3-.3.5h0c.1.2.3.2.8.2a2.57,2.57,0,0,0,2.6-1.5.75.75,0,0,0,.1-.5h0V93c.1-.8.5-1.4.6-1.3v7.2a1.09,1.09,0,0,1-.1.5c-.1.3,0,.4-.2.6s0,.1-.4.3c-.2.1-.2.3-.2.5s.2.3.7.3c1.1-.2,1.9-.6,2.2-1.5a.75.75,0,0,0,.1-.5V91.4a.27.27,0,0,1,.3-.3.32.32,0,0,1,.3.3v7.7a.9.9,0,0,0,.1.5c.2.8,1.1,1.3,2.2,1.5a.56.56,0,0,0,.7-.3c0-.2,0-.4-.2-.5-.4-.2-.1,0-.4-.3s-.1-.4-.2-.6,0-.3-.1-.5V91.7c.1-.1.5.4.6,1.3v4.8h0a.9.9,0,0,0,.1.5,2.61,2.61,0,0,0,2.6,1.5c.4,0,.7,0,.8-.2h0c.1-.2-.1-.4-.3-.5a4.23,4.23,0,0,1-.7-.5,2.09,2.09,0,0,1-.4-.6,4.33,4.33,0,0,1-.1-.5V91.8A3.29,3.29,0,0,0,48,89c3.7-.2,6.5-1.3,7.9-4.1a21.75,21.75,0,0,1,2.5.1,27.63,27.63,0,0,1,6.8,1.1v-.2a30.6,30.6,0,0,0-6.5-1,24.37,24.37,0,0,0-2.7-.1l.3-.9A6.48,6.48,0,0,1,58.3,83.7Z"/><path class="cls-19" d="M53.8,82.7a4.32,4.32,0,0,0-4.3-4.5h0c-2.7,0-3.1.2-4.9.2s-2.2-.2-4.7-.2h-.4a4.29,4.29,0,0,0-4.3,4.4,4.91,4.91,0,0,0,3,4.5h0c0,.2,3.6,1.6,11.3.6a5.16,5.16,0,0,0,1.1-.2h0A5.15,5.15,0,0,0,53.8,82.7Z"/><path class="cls-20" d="M39.6,78.7H40c2.5,0,2.9.2,4.7.2s2.2-.2,4.9-.2h0a4.38,4.38,0,0,1,4.3,4.2v-.2a4.32,4.32,0,0,0-4.3-4.5h0c-2.7,0-3.1.2-4.9.2s-2.2-.2-4.7-.2h-.4a4.29,4.29,0,0,0-4.3,4.4v.2A4.36,4.36,0,0,1,39.6,78.7Z"/><ellipse class="cls-10" cx="39.6" cy="82.6" rx="1.9" ry="2.8"/><ellipse class="cls-21" cx="39.8" cy="82.6" rx="1.3" ry="1.8"/><circle class="cls-10" cx="39.2" cy="81.9" r="0.4"/><ellipse class="cls-10" cx="49.8" cy="82.6" rx="1.9" ry="2.8"/><ellipse class="cls-21" cx="49.6" cy="82.7" rx="1.3" ry="1.8"/><circle class="cls-10" cx="49.3" cy="81.9" r="0.3"/><circle class="cls-21" cx="44.6" cy="85.1" r="0.5"/><path class="cls-21" d="M45.5,86.1c-.1,0-.1.1-.1.2a.89.89,0,0,1-1.6,0,.35.35,0,0,0-.1-.2.35.35,0,0,0-.1.2,1.11,1.11,0,0,0,1.1.8,1.08,1.08,0,0,0,1.1-.8C45.6,86.2,45.6,86.1,45.5,86.1Z"/><path class="cls-15" d="M32,90.4a.3.3,0,1,1-.6,0c0-.1.3-1.4.3-1.4S32,90.2,32,90.4Z"/><circle class="cls-22" cx="32.98" cy="88.7" r="0.2" transform="translate(-61.43 95.22) rotate(-73.56)"/><circle class="cls-22" cx="33.71" cy="89.26" r="0.2" transform="translate(-58.37 64.29) rotate(-54.14)"/><ellipse class="cls-22" cx="34.31" cy="90.12" rx="0.2" ry="0.3" transform="translate(-32.09 20.2) rotate(-22.68)"/><ellipse class="cls-22" cx="35.12" cy="90.99" rx="0.2" ry="0.3" transform="matrix(0.75, -0.66, 0.66, 0.75, -51.09, 45.38)"/><ellipse class="cls-22" cx="36.01" cy="91.75" rx="0.2" ry="0.3" transform="translate(-61.45 77.06) rotate(-60)"/><ellipse class="cls-22" cx="37.1" cy="92.15" rx="0.2" ry="0.3" transform="translate(-59.15 116.71) rotate(-82.39)"/><ellipse class="cls-22" cx="38.4" cy="92.2" rx="0.3" ry="0.2" transform="translate(-6.12 2.79) rotate(-3.86)"/><path class="cls-22" d="M39.7,91.8c0,.1,0,.2-.2.3s-.3-.1-.3-.2.1-.2.3-.3S39.7,91.7,39.7,91.8Z"/><path d="M41.4,88.9a2.36,2.36,0,0,0-.9.8c.3-.1,8.3-1.8,9.1,1.9a3.49,3.49,0,0,0-1.7-2.7A40.62,40.62,0,0,1,41.4,88.9Z"/><path d="M39.8,91.3v2.2h-.2A4.71,4.71,0,0,1,39.8,91.3Z"/><line class="cls-23" x1="47.5" y1="100.9" x2="46.4" y2="100.5"/><line class="cls-23" x1="48.4" y1="103.8" x2="48.1" y2="103.9"/><line class="cls-23" x1="48.8" y1="103.8" x2="49.1" y2="103.7"/><line class="cls-23" x1="48.1" y1="103.9" x2="48.4" y2="103.8"/><path class="cls-15" d="M142.6,97.9c0,2.3-5.1,4.1-11.5,4.1s-11.5-1.8-11.5-4.1,5.1-4,11.5-4S142.6,95.6,142.6,97.9Z"/><g class="cls-16"><path class="cls-17" d="M132.1,98.5a1.6,1.6,0,0,0-.7.9.75.75,0,0,0-.1.5V102a17,17,0,0,0,2.1-.1v-1.7a1.09,1.09,0,0,1,.1-.5c.1-.3,0-.4.2-.6s.1-.1.1-.2Z"/><path class="cls-17" d="M137.2,97.4h0c-.1-.2-.4-.2-.8-.2a2.6,2.6,0,0,0-2.5,1.4h.2l-.2.4h-.1v.1h0v2.8l1.9-.2V99.5a4.33,4.33,0,0,1,.1-.5,2.09,2.09,0,0,1,.4-.6,4.23,4.23,0,0,1,.7-.5C137.1,97.7,137.3,97.5,137.2,97.4Z"/></g><g class="cls-16"><path class="cls-17" d="M127.9,101.8a1.27,1.27,0,0,1,.6.1h0a1.27,1.27,0,0,0-.6-.1Z"/><path class="cls-17" d="M130.6,100.5v-.6c0-.2-.1-.3-.1-.5a2,2,0,0,0-1.5-1.3v.7h-1c.2.1,0,0,.3.3s.1.3.2.6,0,.3.1.5v1.7a14.77,14.77,0,0,0,2.1.1v-1.5Z"/><path class="cls-17" d="M127.9,101.8h0V99h0c0-.2-.1-.3-.1-.5a2.61,2.61,0,0,0-2.6-1.5c-.4,0-.7,0-.8.2h0c-.1.2.1.4.3.5a4.23,4.23,0,0,1,.7.5,2.09,2.09,0,0,1,.4.6,4.33,4.33,0,0,1,.1.5v2.1"/></g><path class="cls-18" d="M144.5,81.6a36.61,36.61,0,0,1,6.9.7v-.2a33.71,33.71,0,0,0-6.6-.6,19.27,19.27,0,0,0-2.4.1,11.1,11.1,0,0,0,.4-3.8,8.14,8.14,0,0,0-2.3-6,7.31,7.31,0,0,0-.3-4.7s-2-.2-5,1.9a16.35,16.35,0,0,0-4.5-.5,16.14,16.14,0,0,0-4.9.7h0a9.13,9.13,0,0,0-5.2-2s-1.2,3-.2,5.1h0a7.89,7.89,0,0,0-1.8,7.9c.2.6.3,1.2.5,1.7-.7,0-1.4-.1-2.1-.1a27.28,27.28,0,0,0-6.6.7v.2a29.3,29.3,0,0,1,6.9-.7,12.1,12.1,0,0,1,1.9.1c.1.3.3.6.4.9a23.48,23.48,0,0,0-2.6.1,30.6,30.6,0,0,0-6.5,1v.2a27.63,27.63,0,0,1,6.8-1.1c.8,0,1.6-.1,2.3-.1,1.6,2.7,4.1,3.8,7.9,4.1a3.12,3.12,0,0,0-1.6,2.4c-4.5,1.8-4.5-2.4-7-3.1a.9.9,0,0,0-.5-.1c-.5-.1-1,0-1.1.2h0v.1c0,.1,0,.1.1.2a1.23,1.23,0,0,0,.8.5c.3.2.7.5.9.6,1.5,1.7,1.7,4.8,6.8,3.8v3.9a4.33,4.33,0,0,1-.1.5,2.09,2.09,0,0,1-.4.6,4.23,4.23,0,0,1-.7.5c-.2.1-.4.3-.3.5h0c.1.2.3.2.8.2a2.57,2.57,0,0,0,2.6-1.5.75.75,0,0,0,.1-.5h0V91c.1-.8.5-1.4.6-1.3v7.2a1.09,1.09,0,0,1-.1.5c-.1.3,0,.4-.2.6s0,.1-.4.3c-.2.1-.2.3-.2.5s.2.3.7.3c1.1-.2,1.9-.6,2.2-1.5a.75.75,0,0,0,.1-.5V89.4a.27.27,0,0,1,.3-.3.32.32,0,0,1,.3.3v7.7a.9.9,0,0,0,.1.5c.2.8,1.1,1.3,2.2,1.5a.56.56,0,0,0,.7-.3c0-.2,0-.4-.2-.5-.4-.2-.1,0-.4-.3s-.1-.4-.2-.6,0-.3-.1-.5V89.7c.1-.1.5.4.6,1.3v4.8h0a.9.9,0,0,0,.1.5,2.61,2.61,0,0,0,2.6,1.5c.4,0,.7,0,.8-.2h0c.1-.2-.1-.4-.3-.5a4.23,4.23,0,0,1-.7-.5,2.09,2.09,0,0,1-.4-.6,4.33,4.33,0,0,1-.1-.5V89.8a3.29,3.29,0,0,0-1.7-2.8c3.7-.2,6.5-1.3,7.9-4.1a21.75,21.75,0,0,1,2.5.1,27.63,27.63,0,0,1,6.8,1.1v-.2a30.6,30.6,0,0,0-6.5-1,24.37,24.37,0,0,0-2.7-.1l.3-.9A4.43,4.43,0,0,1,144.5,81.6Z"/><path class="cls-19" d="M140,80.7a4.32,4.32,0,0,0-4.3-4.5h0c-2.7,0-3.1.2-4.9.2s-2.2-.2-4.7-.2h-.4a4.29,4.29,0,0,0-4.3,4.4,4.91,4.91,0,0,0,3,4.5h0c0,.2,3.6,1.6,11.3.6a5.16,5.16,0,0,0,1.1-.2h0A5.25,5.25,0,0,0,140,80.7Z"/><path class="cls-20" d="M125.8,76.6h.4c2.5,0,2.9.2,4.7.2s2.2-.2,4.9-.2h0a4.38,4.38,0,0,1,4.3,4.2v-.2a4.32,4.32,0,0,0-4.3-4.5h0c-2.7,0-3.1.2-4.9.2s-2.2-.2-4.7-.2h-.4a4.29,4.29,0,0,0-4.3,4.4v.2A4.36,4.36,0,0,1,125.8,76.6Z"/><ellipse class="cls-10" cx="125.8" cy="80.6" rx="1.9" ry="2.8"/><ellipse class="cls-21" cx="126" cy="80.6" rx="1.3" ry="1.8"/><circle class="cls-10" cx="125.4" cy="79.8" r="0.4"/><ellipse class="cls-10" cx="136" cy="80.6" rx="1.9" ry="2.8"/><ellipse class="cls-21" cx="135.8" cy="80.6" rx="1.3" ry="1.8"/><circle class="cls-10" cx="135.5" cy="79.9" r="0.3"/><circle class="cls-21" cx="130.8" cy="83" r="0.5"/><path class="cls-21" d="M131.7,84.1c-.1,0-.1.1-.1.2a.89.89,0,0,1-1.6,0,.13.13,0,1,0-.2,0,1.11,1.11,0,0,0,1.1.8,1.08,1.08,0,0,0,1.1-.8C131.8,84.2,131.8,84.1,131.7,84.1Z"/><path class="cls-15" d="M118.2,88.3a.32.32,0,0,1-.3.3.45.45,0,0,1-.3-.3c0-.1.3-1.4.3-1.4S118.2,88.2,118.2,88.3Z"/><circle class="cls-22" cx="119.22" cy="86.66" r="0.2" transform="translate(2.36 176.48) rotate(-73.56)"/><circle class="cls-22" cx="119.87" cy="87.18" r="0.2" transform="translate(-21.01 133.25) rotate(-54.14)"/><ellipse class="cls-22" cx="120.5" cy="88.02" rx="0.2" ry="0.3" transform="translate(-24.62 53.27) rotate(-22.68)"/><ellipse class="cls-22" cx="121.29" cy="88.9" rx="0.2" ry="0.3" transform="matrix(0.75, -0.66, 0.66, 0.75, -28.57, 101.4)"/><ellipse class="cls-22" cx="122.17" cy="89.68" rx="0.2" ry="0.3" transform="translate(-16.58 150.64) rotate(-60)"/><ellipse class="cls-22" cx="123.34" cy="90.1" rx="0.2" ry="0.3" transform="translate(17.69 200.42) rotate(-82.39)"/><ellipse class="cls-22" cx="124.59" cy="90.1" rx="0.3" ry="0.2" transform="translate(-5.78 8.59) rotate(-3.86)"/><path class="cls-22" d="M125.9,89.8c0,.1,0,.2-.2.3s-.3-.1-.3-.2.1-.2.3-.3S125.9,89.7,125.9,89.8Z"/><path d="M127.6,86.8a2.36,2.36,0,0,0-.9.8c.3-.1,8.3-1.8,9.1,1.9a3.49,3.49,0,0,0-1.7-2.7A40.62,40.62,0,0,1,127.6,86.8Z"/><path d="M126,89.3v2.2h-.2A4.71,4.71,0,0,1,126,89.3Z"/><line class="cls-23" x1="133.7" y1="98.9" x2="132.6" y2="98.5"/><line class="cls-23" x1="134.2" y1="101.8" x2="133.8" y2="101.9"/><line class="cls-23" x1="134.2" y1="101.8" x2="133.9" y2="101.9"/><line class="cls-23" x1="135.7" y1="101.6" x2="135.3" y2="101.7"/><line class="cls-23" x1="134.6" y1="101.8" x2="135" y2="101.7"/><g id="g10"><g id="g3393"><path id="path22" class="cls-24" d="M234.18,85.66A13.78,13.78,0,1,1,220.4,71.57a13.94,13.94,0,0,1,13.78,14.09"/><path id="path24" class="cls-25" d="M207.19,89.15s-1-14.7,12.54-15.12l-.94-1.57-7.35,2.47-2.1,2.41-1.84,3.52-1,4.09.31,2.73"/><path id="path26" class="cls-8" d="M211,76a13.78,13.78,0,0,0-3.91,9.67h0A13.78,13.78,0,0,0,211,95.38h0a13.15,13.15,0,0,0,9.44,4h0a13.15,13.15,0,0,0,9.44-4h0a13.78,13.78,0,0,0,3.91-9.67h0A13.78,13.78,0,0,0,229.84,76h0a13.16,13.16,0,0,0-9.44-4h0A13.16,13.16,0,0,0,211,76ZM210.35,96a14.64,14.64,0,0,1-4.16-10.26h0a14.64,14.64,0,0,1,4.16-10.26h0a14,14,0,0,1,10-4.26h0a14,14,0,0,1,10,4.26h0a14.64,14.64,0,0,1,4.16,10.26h0A14.64,14.64,0,0,1,230.45,96h0a14,14,0,0,1-10,4.26h0a14,14,0,0,1-10-4.26h0"/><path id="path28" class="cls-26" d="M226.2,85.74l-2.1.31-2.83.31-1.84.05-1.78-.05L216.28,86l-1.21-1.31L214.13,82l-.21-.58L212.66,81l-.73-1.21L211.4,78,212,76.5l1.36-.47,1.1.52.52,1.15.63-.11.21-.26-.21-1.21-.05-1.52.31-2.1v-1.2l1-1.53,1.68-1.21,2.94-1.26,3.25.47,2.83,2,1.31,2.1.84,1.52.21,3.78-.63,3.25-1.15,2.89L227,84.9"/><path id="path30" class="cls-27" d="M224.42,94.82l-7.51.31V96.4l.63,4.41-.31.37L212,99.39l-.37-.63-.52-5.93-1.21-3.57-.26-.84,4.2-2.89,1.31-.52,1.15,1.42,1,.89,1.15.37.52.16.63,2.73.47.58,1.21-.42-.84,1.63L225,94.51l-.58.31"/><path id="path32" class="cls-28" d="M212,76.5l1.36-.47,1.1.52.52,1.15.63-.11.16-.63-.31-1.21.31-2.89-.26-1.57.94-1.1,2-1.63-.58-.79L215,69.21l-1.21.94-.68,1.47-1,1.42-.31,1.68L212,76.5"/><path id="path34" class="cls-29" d="M214.13,71.57s.79-1.94,3.94-2.89.16-.68.16-.68l-3.41,1.31-1.31,1.31-.58,1,1.21-.11"/><path id="path36" class="cls-29" d="M212.56,76.14s-1.1-3.67,3.1-4.2l-.16-.63-2.89.68-.84,2.73L212,76.5l.58-.37"/><path id="path38" class="cls-30" d="M214.23,81l.69-.67a.44.44,0,0,1,.36.4c.05.37.21,3.67,2.47,5.46.21.16-1.68-.26-1.68-.26l-1.68-2.62"/><path id="path40" class="cls-30" d="M223.89,80s.12-1.59.55-1.47a.59.59,0,0,1,.43.55s-1,.67-1,.92"/><path id="path42" class="cls-30" d="M228.25,74.19s-.87.18-.94.94.94.16,1.1.11"/><path id="path44" class="cls-30" d="M221.9,74.25s-1.15.16-1.15.89,1.31.68,1.68.37"/><path id="path46" class="cls-30" d="M214.76,77.66s-2-1.21-2.2-.05-.68,2,.31,3.2l-.68-.21L211.56,79l-.21-1.57,1.21-1.26,1.36.11.79.63.05.79"/><path id="path48" class="cls-30" d="M215.7,74.35s.89-4.62,5.41-5.51c3.72-.73,5.67.16,6.4,1,0,0-3.31-3.94-6.46-2.73s-5.46,3.41-5.41,4.83a23.07,23.07,0,0,1,.05,2.41"/><path id="path50" class="cls-30" d="M227.88,70.36s-1.52-.05-1.57,1.31a1,1,0,0,0,.1.42s1.21-1.36,1.94-.63"/><path id="path52" class="cls-30" d="M221.22,72.24s-.26-2.09-2-.88c-1.15.79-1,1.89-.84,2.1s.15.63.31.34.11-1.23.68-1.5,1.52-.56,1.89-.07"/><path id="path54" class="cls-31" d="M216.28,86.42l-4.93,2.2s2,8.14,1,10.65l-.73-.26-.05-3.1L210.19,90l-.58-1.63L214.76,85l1.52,1.47"/><path id="path56" class="cls-31" d="M216.79,90.92l.7.85v3.15h-.84s-.1-2.2-.1-2.47.1-1.21.1-1.21"/><path id="path58" class="cls-31" d="M216.81,95.4l-2.36.1.68.47,1.68.26"/><path id="path60" class="cls-27" d="M224.89,94.87l1.94-.05.47,4.83-2,.26-.42-5"/><path id="path62" class="cls-27" d="M225.41,94.87l2.94-.16s1.21-3,1.21-3.2,1-4.41,1-4.41l-2.36-2.47-.47-.42-1.26,1.26v4.88l-1.1,4.51"/><path id="path64" class="cls-31" d="M226.73,94.51l-1.84.37.26,1.47c.68.31,1.84-.52,1.84-.52"/><path id="path66" class="cls-31" d="M226.78,85.32l3.67,2.73.11-1.26-2.78-2.57-1,1.1"/><path id="path68" class="cls-10" d="M218.63,105.21l-1.09-4.41L217,97.55l-.09-2.42,4.92-.26h3.06l-.28,5.51.47,4.25-.05.79-4,.31-2.41-.52"/><path id="path70" class="cls-29" d="M224.21,94.82a46.42,46.42,0,0,0,.52,9.34,10,10,0,0,1-3.88,1.26l4.41-.16.52-.31-.63-8.61L225,94.51"/><path id="path72" class="cls-10" d="M227.39,99.23l2-.58,3.88-.21.58-1.78-1-3.1-1.21-.16-1.68.52-1.61.79-.86-.16-.67.26"/><path id="path74" class="cls-29" d="M227.36,98.18a7.69,7.69,0,0,1,1.57-.58l-.58-2.89.68-.26s.47,2.73.47,3c0,0,2.94.16,3.2.16a4.77,4.77,0,0,0,.47-2.47l.58,1.68.05.94L233,99.07l-.94.21-1.57-.05-.52-.68-1.84.26-.58.21"/><path id="path76" class="cls-10" d="M225.29,94.45l-1.15-2.94-1.21-1.73s.26-.73.63-.73h1.21l1.15.42-.1,1.94-.52,3"/><path id="path78" class="cls-29" d="M225.52,93.46A24.46,24.46,0,0,1,224,90.2s.26-.63.63-.47,1.15.58,1.15.58v-1L224,88.94l-1.21.16,2,4.83.42.05"/><path id="path80" class="cls-10" d="M219.1,86.53l-1.45-.16L216.28,86v.47l.67.74,2.1.94"/><path id="path82" class="cls-29" d="M216.75,86.69a5.8,5.8,0,0,0,2.15.52l.05.63-1.47-.31-.89-.63.16-.21"/><path id="path84" class="cls-24" d="M227.39,89.23a10,10,0,0,1-2.4-.33,7.43,7.43,0,0,1,0-.78,1.88,1.88,0,0,1,.82-.17,1.43,1.43,0,0,0-.91-.1,1.46,1.46,0,0,0-.15-.48c.5-.18,1.68-1.35,2.35-1,.32.18.45,1.24.48,1.75a1.79,1.79,0,0,1-.21,1.08"/><path id="path86" class="cls-32" d="M227.39,89.23a10,10,0,0,1-2.4-.33,7.43,7.43,0,0,1,0-.78,1.88,1.88,0,0,1,.82-.17,1.43,1.43,0,0,0-.91-.1,1.46,1.46,0,0,0-.15-.48c.5-.18,1.68-1.35,2.35-1,.32.18.45,1.24.48,1.75A1.79,1.79,0,0,1,227.39,89.23Z"/><path id="path88" class="cls-24" d="M223.13,87.77V88c-.28.18-.73.18-1,.33a2.68,2.68,0,0,1,1.11.28l0,.51a18.13,18.13,0,0,1-1.58,1.2,4.17,4.17,0,0,1-1.58.48c-.17,0-.19-.25-.25-.45a6.46,6.46,0,0,1-.51-1.75c0-.81-.12-2.18.76-2a7.83,7.83,0,0,1,2.08.76,2.14,2.14,0,0,0,1,.45"/><path id="path90" class="cls-32" d="M223.13,87.77V88c-.28.18-.73.18-1,.33a2.68,2.68,0,0,1,1.11.28l0,.51a18.13,18.13,0,0,1-1.58,1.2,4.17,4.17,0,0,1-1.58.48c-.17,0-.19-.25-.25-.45a6.46,6.46,0,0,1-.51-1.75c0-.81-.12-2.18.76-2a7.83,7.83,0,0,1,2.08.76A2.14,2.14,0,0,0,223.13,87.77Z"/><path id="path92" class="cls-24" d="M223.64,88.74a3,3,0,0,1-.13-1c1.18-.79,1.4,1.35.13,1"/><path id="path94" class="cls-32" d="M223.64,88.74a3,3,0,0,1-.13-1C224.68,87,224.91,89.14,223.64,88.74Z"/><path id="path96" class="cls-25" d="M225.35,89.1s-.37-.52-.11-.68.52,0,.68-.26,0-.42.05-.73.32-.37.58-.42,1-.16,1.1.11l-.31-.94-.63-.21-2,1.15-.11.58v1.15"/><path id="path98" class="cls-25" d="M219.84,90.83q-.09-1.23-.2-2.46c-.11-1.22.29-1,1.35-1a2.79,2.79,0,0,1,1.06.31c.29.58-.48.45.33.9s1.89-.23,1.61-1.05c-.15-.18-.8-.06-1-.18l-1.23-.64c-.52-.27-1.73-.67-2.28-.29-1.41,1,.09,3.35.59,4.35"/><path id="path100" class="cls-8" d="M221.22,72.24c-1.43-.33-2.14.6-2.58,1.57-.39-.09-.23-.62-.14-.89a2.43,2.43,0,0,1,2.13-1.51c.36.05.85.39.58.84"/><path id="path102" class="cls-8" d="M228.19,73.87h.07a14.79,14.79,0,0,0,1,2c-.27.64-2.07,1.2-2,.06.39-.17,1.06,0,1.4-.25a3.89,3.89,0,0,1-.44-1.78"/><path id="path104" class="cls-8" d="M221.95,73.88a6,6,0,0,0,.84,1.58c.2.19.58.42.39,1a1.21,1.21,0,0,1-.55.46c-.68.2-2.27,0-1.73-.81.56,0,1.32.37,1.74,0-.32-.52-.9-1.54-.69-2.14"/><path id="path106" class="cls-8" d="M227.93,79.6a5.68,5.68,0,0,1-3.85,1.21,1.14,1.14,0,0,1-.15-1.47c.18.31.07.89.57,1,1,.16,2.06-.58,2.75-.84.43-.72,0-1-.42-1.44-.78-.95-1.84-2.12-1.8-3.54.32-.23.34.35.39.46a13,13,0,0,0,2.19,3c.18.2.49.4.52.53.1.39-.25.85-.21,1.11"/><path id="path108" class="cls-8" d="M214.4,78.9c-.32-.18-.4-1-.78-1-.54,0-.44,1-.44,1.68a2,2,0,0,1-.16-1.91c-.31-.15-.45.17-.62.28.22-1.61,2.36-.75,2,1"/><path id="path110" class="cls-8" d="M228.58,80.27A3,3,0,0,1,226,82.21a3.46,3.46,0,0,1,0-.92,7.37,7.37,0,0,0,2.55-1"/><path id="path112" class="cls-8" d="M221.87,80.86a8.87,8.87,0,0,0,3.75.49,4.26,4.26,0,0,1,.07.92c-1.56.08-3.41-.31-3.82-1.41"/><path id="path114" class="cls-8" d="M221.7,81.73c.62,1.55,2.74,1.37,4.54,1.33a1,1,0,0,1-.46.53,4.55,4.55,0,0,1-3,0,4,4,0,0,1-1.11-1.23c-.13-.17-.8-.61,0-.61"/><path id="path116" class="cls-33" d="M227.86,90.3a31.65,31.65,0,0,1-2.28,3.62,17.41,17.41,0,0,0,.57-4.19,1.32,1.32,0,0,1,1.71.58"/><path id="path118" class="cls-8" d="M231.76,94.76c-.81.16-1.38,1-2.18.9a2.59,2.59,0,0,1,2.18-.9"/><path id="path120" class="cls-8" d="M232.12,96a11.9,11.9,0,0,1-2.11.12c.32-.49,1.54-.32,2.11-.12"/><path id="path122" class="cls-8" d="M232.35,97.13c-.74,0-1.67,0-2.38-.06.42-.45,1.89-.17,2.38.06"/><path id="path124" class="cls-29" d="M226.46,100.13a17.49,17.49,0,0,1,.43,2.9,3,3,0,0,1-1.2.26c0-.87-.16-2.2-.12-3,.27,0,.67-.19.89-.14"/><path id="path126" class="cls-26" d="M225.26,86.36c-.37.24-.69.55-1.05.81a2.31,2.31,0,0,1-1.81-.51s.07,0,.07-.07c.85.38,1.93-.15,2.79-.23"/><path id="path128" class="cls-33" d="M220.78,92.16c.23-1,1.15-1.54,2-2.1a16.75,16.75,0,0,1,2,3.85,20.07,20.07,0,0,1-3.94-1.75"/><path id="path130" class="cls-8" d="M225.57,100.27c0,.83.08,2.16.12,3a3,3,0,0,0,1.2-.26,17.49,17.49,0,0,0-.43-2.9C226.24,100.07,225.84,100.28,225.57,100.27ZM217,95.55a43.34,43.34,0,0,0,1.86,9.11,12.07,12.07,0,0,0,6.62.12c-.35-1.67-.2-3.7-.4-5.49-.15-1.34-.08-2.69-.29-4.05A22.7,22.7,0,0,0,217,95.55Zm8.34-.29c0,1.44.06,2.85.17,4.29.55-.08.93-.14,1.44-.25a30.89,30.89,0,0,0-.48-4.16A3.41,3.41,0,0,0,225.32,95.26Zm2.8-.23a3.43,3.43,0,0,0-.82,0c.12,1.17.4,2.46.5,3.69a3.42,3.42,0,0,0,.93-.24,7.43,7.43,0,0,0-.61-3.46Zm4.23,3.87a1.82,1.82,0,0,0,1.11-2.23,10.57,10.57,0,0,0-.72-2.44c-.22-.33-.8-.76-1.27-.46-.76.49-2.11.63-2.66,1.22a19.72,19.72,0,0,1,.48,3.38c1,.06,2.13-.26,2.92.08a11.1,11.1,0,0,0-1.75.44,3.65,3.65,0,0,0,1.9,0Zm-7.62-5a16.75,16.75,0,0,0-2-3.85c-.83.56-1.75,1.08-2,2.1A20.07,20.07,0,0,0,224.73,93.91Zm1.42-4.19a17.41,17.41,0,0,1-.57,4.19,31.65,31.65,0,0,0,2.28-3.62A1.32,1.32,0,0,0,226.15,89.72Zm-1.61-.57c-.33,0-.6.37-1,.2l-.28.33c.94,1.13,1.36,2.73,2.09,4.06a17.8,17.8,0,0,0,.43-4.06C225.21,89.71,224.91,89.19,224.54,89.15Zm-1-1.37a3,3,0,0,0,.13,1C224.91,89.14,224.68,87,223.5,87.79Zm-1.41-.46a7.83,7.83,0,0,0-2.08-.76c-.88-.17-.79,1.2-.76,2a6.46,6.46,0,0,0,.51,1.75c.07.2.08.41.25.45a4.17,4.17,0,0,0,1.58-.48,18.13,18.13,0,0,0,1.58-1.2l0-.51a2.68,2.68,0,0,0-1.11-.28c.31-.15.75-.15,1-.33v-.2A2.14,2.14,0,0,1,222.09,87.32Zm-5.23-.95c-.45.46,1.27,1.09,1.83,1.12,0-.29.17-.57.13-.78A5.81,5.81,0,0,1,216.86,86.37Zm5.6.22s-.06,0-.07.07a2.31,2.31,0,0,0,1.81.51c.36-.26.68-.56,1.05-.81C224.4,86.43,223.31,87,222.46,86.59Zm5.14,1.56c0-.51-.16-1.57-.48-1.75-.66-.39-1.85.78-2.35,1a1.46,1.46,0,0,1,.15.48,1.43,1.43,0,0,1,.91.1,1.88,1.88,0,0,0-.82.17,7.43,7.43,0,0,0,0,.78,10,10,0,0,0,2.4.33A1.79,1.79,0,0,0,227.6,88.15Zm-11.5-1.33c-.14-.1-1.11-1.36-1.24-1.31a20.77,20.77,0,0,0-4.84,3,26.37,26.37,0,0,1,2.05,10.17c1.59.75,3,1.82,5.16,1.93-.25-1.77-.48-3.35-.62-5-.54-.23-1.32,0-1.83-.07,0-.61.78-.27.84-.68s-.43-.34-.27-.83c.4.14.61.46,1,.58.39-.85,0-2.35.05-3.06,0-.13.07-.74.36-.63s0,1.61,0,2.28a3.52,3.52,0,0,0,.18,1.6,59.73,59.73,0,0,1,6.48-.53,15.67,15.67,0,0,1-1.74-.78c-.35-.2-1.46-.61-1.56-.94-.16-.53.42-.81.52-1.27-1.06.58-1.26-.55-1.51-1.35a10.49,10.49,0,0,1-.41-1.68,18.18,18.18,0,0,1-2.66-1.43Zm10.58-1.15c1.46-.71,1.72,2.64,1.15,3.71.09.32.39.44.52.73-.81,1.45-1.71,2.81-2.54,4.25.62-.38,1.5-.07,2.22-.36.27-.1.46-.71.66-1.2a26,26,0,0,0,1.39-4.3,5.43,5.43,0,0,0,.18-1.18c-.06-.46-.69-.81-1-1.09-.59-.53-1-1-1.57-1.49-.25.37-.78.61-1,.91ZM212.77,72.76c-.69.76-.55,2.19-.46,3.21a1.86,1.86,0,0,1,2.9,1.4c.6,0,.22-.75.12-1.22-.35-1.54.6-3.21,0-4.62a3.8,3.8,0,0,0-2.6,1.22Zm5-4.43c-1.57.44-3.58,1.59-4.23,3,.5-.07.85-.32,1.34-.36a3.29,3.29,0,0,0,.64,0c.43-.11.79-1.06,1.11-1.42s.69-.5.95-.81c.17-.08.41-.07.42-.32C217.89,68.36,217.82,68.31,217.73,68.33Zm8.17.42c-1.63-.92-4.39-1.61-6.12-.75-1.4.7-3.29,1.85-3.93,3.31.6,1.41-.18,2.7-.23,4.14,0,.76.36,1.43.39,2.26-.21.34-.84.38-1.27.36-.15-.73-.4-1.56-1.16-1.64a1.75,1.75,0,0,0-1.9,1.69c-.06,1.09.84,2.89,2.1,2.77.49,0,.61-.54,1.14-.53.29.58-.45.76-.52,1.17a3.31,3.31,0,0,0,.11.72,9.79,9.79,0,0,0,1.25,2.9c.64.92,1.9,1.06,3.25,1.15.24-.52,1.13-.48,1.71-.34a5.74,5.74,0,0,1-1.88-1.53,3.85,3.85,0,0,1-1.27-2.29c1.16,1.61,2.12,3,4.24,3.73,1.6.54,3.47-.25,4.7-1.11a5.4,5.4,0,0,0,1.18-1.45,12.29,12.29,0,0,0,1.85-7.44,8.25,8.25,0,0,0-.43-3c-.39-.78-1.71-1.48-2.48-.78-.14-.76.64-1.23,1.57-1a8.74,8.74,0,0,0-2.29-2.4Zm3,25.13c1.27-.63,3.65-1.7,4.45,0a14.47,14.47,0,0,1,.79,2.34c.22.92-.23,2.84-1.18,3.15a5.59,5.59,0,0,1-2.8.05,1.53,1.53,0,0,1-.34-.45,3.87,3.87,0,0,0-1.95.33c.05.53-.3.61-.64.72-.25,1,.5,2.27.32,3.17-.13.64-.92.74-1.49.86a4.92,4.92,0,0,0,.06,1,1.45,1.45,0,0,1-1.29.83,16.19,16.19,0,0,1-6.44-.32c-.5-1.22-.89-2.7-1.3-4.09-1.74.19-3.14-.75-4.47-1.36-.46-.21-1.09-.33-1.26-.69a6.25,6.25,0,0,1-.14-1.67,25.38,25.38,0,0,0-.63-4.88c-.19-.75-.53-1.41-.77-2.14a15.42,15.42,0,0,1-.7-2.17c-.15-1,.79-1,1.38-1.48.92-.66,1.65-1,2.65-1.63a6,6,0,0,0,1.29-.83c.2-.41-.35-1-.49-1.31a3.94,3.94,0,0,1-.39-1.44,2.78,2.78,0,0,1-1.86-1.19,4.57,4.57,0,0,1-.53-4c0-.1.26-.31.29-.46a5.37,5.37,0,0,0-.13-1.06c-.06-1.7.29-3.17,1.43-3.68.47-1.85,2.13-2.47,3.7-3.39a11.63,11.63,0,0,1,1.9-.81c2.39-.88,6.07-.72,8.06.79a10.82,10.82,0,0,1,2.67,3c1.27,2.57,1.18,6.87.29,10a10.07,10.07,0,0,1-.54,1.54c-.17.35-.69,1.06-.63,1.37s1.2,1.18,1.44,1.41c.44.42,1.27,1,1.33,1.51a5.35,5.35,0,0,1-.41,1.89c-.54,1.82-1.08,3.51-1.69,5.13"/><path id="path132" class="cls-30" d="M220.45,81.26c.07-.09.45-.23,1,0,0,0-.63.11-.58,1.16l-.26-.05s-.27-1-.14-1.13"/><path id="path134" class="cls-34" d="M225,90.28a.29.29,0,1,1-.29-.29.29.29,0,0,1,.29.29"/><path id="path136" class="cls-34" d="M225.34,91.62a.29.29,0,1,1-.29-.29.29.29,0,0,1,.29.29"/></g></g><text class="cls-35" transform="translate(199.67 128.8)">JENKINS</text><text class="cls-35" transform="translate(0 18.6)">THINK</text><text class="cls-35" transform="translate(89.7 18.6)">CODE</text><text class="cls-35" transform="translate(179.7 18.6)">DELIVER</text><text class="cls-35" transform="translate(268.8 18.6)">RUN</text><rect class="cls-36" x="357.9" width="83.5" height="4.5"/><text class="cls-35" transform="translate(357.9 18.6)">CU<tspan class="cls-37" x="14.82" y="0">L</tspan><tspan class="cls-38" x="19.83" y="0">TURE</tspan></text><text class="cls-35" transform="translate(287.84 128.8)">BLUEMIX</text><text class="cls-35" transform="translate(383.84 128.8)">SLACK</text><text class="cls-35" transform="translate(98.93 128.8)">REPOSITO<tspan class="cls-39" x="51.48" y="0">R</tspan><tspan x="58.33" y="0">Y</tspan><tspan x="15.93" y="13">GitHub</tspan></text><text class="cls-35" transform="translate(109.16 243.5)">WEB IDE</text><text class="cls-35" transform="translate(4.55 128.8)">ISSUE TRACKER<tspan x="23.99" y="13">GitHub</tspan></text><circle class="cls-1" cx="400.6" cy="86.5" r="26.5"/><path class="cls-40" d="M406.32,70.51a3.26,3.26,0,1,0-6.21,2l8.43,25.93a3.25,3.25,0,0,0,4,2,3.2,3.2,0,0,0,2.22-4C414.72,96.39,406.32,70.51,406.32,70.51Z"/><path class="cls-41" d="M393.27,74.75a3.26,3.26,0,1,0-6.21,2l8.43,25.93a3.25,3.25,0,0,0,4,2,3.2,3.2,0,0,0,2.22-4C401.67,100.62,393.27,74.75,393.27,74.75Z"/><path class="cls-42" d="M416.95,92a3.26,3.26,0,0,0-2-6.21l-26,8.46a3.25,3.25,0,0,0-2,4,3.2,3.2,0,0,0,4,2.22C391,100.41,416.95,92,416.95,92Z"/><path class="cls-43" d="M394.38,99.33l6.21-2c-.54-1.68-1.26-3.87-2-6.21l-6.21,2Z"/><path class="cls-44" d="M407.46,95.06l6.21-2c-.54-1.68-1.26-3.87-2-6.21l-6.21,2Z"/><path class="cls-45" d="M412.68,78.92a3.26,3.26,0,0,0-2-6.21l-25.93,8.43a3.25,3.25,0,0,0-2,4,3.2,3.2,0,0,0,4,2.22C386.81,87.32,412.68,78.92,412.68,78.92Z"/><path class="cls-46" d="M390.14,86.24l6.21-2c-.75-2.34-1.47-4.53-2-6.21l-6.21,2Z"/><path class="cls-47" d="M403.2,82l6.21-2c-.75-2.34-1.47-4.53-2-6.21l-6.21,2Z"/><polyline class="cls-6" points="310 52.8 310 42 217 42"/><polygon class="cls-7" points="314.8 51.5 309.8 60.1 304.9 51.5 314.8 51.5"/><polyline class="cls-6" points="400 52.8 400 42 307 42"/><polygon class="cls-7" points="404.8 51.5 399.8 60.1 394.9 51.5 404.8 51.5"/><polyline class="cls-6" points="130.8 42 220 42 220 52.8"/></svg>