<svg width="530.5" height="243.5" xmlns="http://www.w3.org/2000/svg">
 <style type="text/css">.st0{fill:#FFFFFF;stroke:#5AAAFA;stroke-miterlimit:10;}
	.st1{fill:#EEC02B;}
	.st2{fill:#1CB3A0;}
	.st3{fill:#975AD1;}
	.st4{fill:#FC42A0;}
	.st5{fill:none;stroke:#5AAAFA;stroke-width:2;stroke-miterlimit:10;}
	.st6{fill:#5AAAFA;}
	.st7{fill:#231F20;}
	.st8{fill:#FCC215;}
	.st9{fill:#FFFFFF;}
	.st10{fill:#00B198;}
	.st11{fill:#00AED1;}
	.st12{fill:#3B4B54;}
	.st13{fill:none;stroke:#FFFFFF;stroke-width:0.5;stroke-miterlimit:10;}
	.st14{opacity:0.77;fill:#9CDAF0;enable-background:new    ;}
	.st15{opacity:0.35;}
	.st16{opacity:0.77;fill:#201F1F;enable-background:new    ;}
	.st17{fill:#201F1F;}
	.st18{fill:#F4CAB1;}
	.st19{opacity:0.5;fill:#AC5C51;enable-background:new    ;}
	.st20{fill:#AC5C51;}
	.st21{fill:#9CDAF0;}
	.st22{fill:none;}
	.st23{fill:#D33833;}
	.st24{fill:#EF3D3A;}
	.st25{fill:#F0D6B7;}
	.st26{fill:#335061;}
	.st27{fill:#6D6B6D;}
	.st28{fill:#DCD9D8;}
	.st29{fill:#F7E4CD;}
	.st30{fill:#49728B;}
	.st31{fill:none;stroke:#D33833;stroke-width:2;}
	.st32{fill:#81B0C4;}
	.st33{fill:#1D1919;}
	.st34{fill:#FC5255;}
	.st35{fill:#ECB32D;}
	.st36{fill:#63C1A0;}
	.st37{fill:#E01A59;}
	.st38{fill:#331433;}
	.st39{fill:#D62027;}
	.st40{fill:#89D3DF;}
	.st41{fill:#258B74;}
	.st42{fill:#819C3C;}
	.st43{fill:#2E3737;}
	.st44{fill:#586565;}
	.st45{fill:#FCE77F;}
	.st46{fill:#FCD432;}
	.st47{fill:#030506;}
	.st48{fill:#3D4747;}
	.st49{fill:#64BC46;}</style>

 <title>Jenkins-toolchain</title>
 <g>
  <title>background</title>
  <rect fill="none" id="canvas_background" height="402" width="582" y="-1" x="-1"/>
 </g>
 <g>
  <title>Layer 1</title>
  <circle id="svg_1" r="26.5" cy="86.5" cx="132.552885" class="st0"/>
  <circle id="svg_2" r="26.5" cy="86.8" cx="45.952885" class="st0"/>
  <rect id="svg_3" height="4.5" width="83.5" class="st1"/>
  <rect id="svg_4" height="4.5" width="83.5" class="st2" x="89.7"/>
  <rect id="svg_5" height="4.5" width="83.5" class="st3" x="179.7"/>
  <rect id="svg_6" height="4.5" width="83.5" class="st4" x="268.8"/>
  <circle id="svg_7" r="26.5" cy="86.5" cx="222.752885" class="st0"/>
  <circle id="svg_8" r="26.5" cy="86.5" cx="312.252885" class="st0"/>
  <polyline id="svg_9" points="45.452878803014755,52.79999923706055 45.452878803014755,42 132.152891010046,42 132.152891010046,55 " class="st5"/>
  <polygon id="svg_10" points="50.452878803014755,51.400001525878906 45.452878803014755,60 40.452878803014755,51.400001525878906 " class="st6"/>
  <line id="svg_11" y2="149" x2="132.152885" y1="168" x1="132.152885" class="st5"/>
  <line id="svg_12" y2="86.5" x2="166.952885" y1="86.5" x1="177.252885" class="st5"/>
  <polygon id="svg_13" points="175.8528879582882,81.5 184.45289406180382,86.5 175.8528879582882,91.5 " class="st6"/>
  <line id="svg_14" y2="86.5" x2="258.452885" y1="86.5" x1="268.752885" class="st5"/>
  <polygon id="svg_15" points="267.35285744071007,81.5 275.95283302664757,86.5 267.35285744071007,91.5 " class="st6"/>
  <g id="svg_16">
   <line id="svg_17" y2="86.5" x2="348.452885" y1="86.5" x1="358.752885" class="st5"/>
   <polygon id="svg_18" points="357.35285744071007,81.5 365.95283302664757,86.5 357.35285744071007,91.5 " class="st6"/>
  </g>
  <g id="svg_19">
   <line id="svg_20" y2="86.5" x2="438.452885" y1="86.5" x1="448.752885" class="st5"/>
   <polygon id="svg_21" points="447.35285744071007,81.5 455.95283302664757,86.5 447.35285744071007,91.5 " class="st6"/>
  </g>
  <circle id="svg_22" r="26.5" cy="201.9" cx="132.152885" class="st0"/>
  <path d="m141.652885,216.8l-19.2,0c-2.8,0 -5,-2.2 -5,-5l0,-19.6c0,-2.8 2.2,-5 5,-5l19.3,0c2.7,0 4.9,2.2 5,4.9l0,19.4c0,2.9 -2.2,5.2 -5.1,5.3z" class="st7" id="_Path_"/>
  <circle r="2.8" cy="195.4" cx="140.852885" class="st8" id="_Path_2"/>
  <circle r="2.8" cy="202.2" cx="136.852885" class="st8" id="_Path_3"/>
  <circle r="2.8" cy="209" cx="132.852885" class="st8" id="_Path_4"/>
  <path d="m132.752885,204.8l-0.4,0c-0.1,0 -0.3,-0.1 -0.3,-0.2c0,0 0,0 0,-0.1l0,-4.9c0,-0.1 0.1,-0.3 0.2,-0.3c0,0 0,0 0.1,0l0.4,0c0.1,0 0.3,0.1 0.3,0.2c0,0 0,0 0,0.1l0,4.8c0.1,0.2 -0.1,0.4 -0.3,0.4z" class="st9" id="_Path_5"/>
  <path d="m145.052885,199.3l0,0c-0.3,0 -0.5,0.2 -0.5,0.4c0,0 0,0 0,0.1l0,3.1l-2.6,-3.4l0,0l-0.1,-0.1l-0.3,0c-0.2,0.1 -0.3,0.2 -0.4,0.4l0,0.1l0,0l0,4.4c0,0.3 0.2,0.5 0.4,0.5c0,0 0,0 0.1,0l0,0c0.3,0 0.5,-0.2 0.5,-0.4c0,0 0,0 0,-0.1l0,-2.9l2.6,3.3l0.2,0.2l0.2,0c0.2,0 0.4,-0.3 0.4,-0.5l0,-4.6c0,-0.3 -0.2,-0.5 -0.5,-0.5c0,0 0,0 0,0z" class="st9" id="_Path_6"/>
  <path d="m122.552885,196.6c-2.4,-0.2 -4.5,1.5 -4.7,3.9c-0.2,2.4 1.5,4.5 3.9,4.7c2.4,0.2 4.5,-1.5 4.7,-3.9c0,-0.1 0,-0.3 0,-0.4c0.1,-2.3 -1.6,-4.2 -3.9,-4.3zm0,7.8c-1.8,0 -3.2,-1.5 -3.2,-3.3c0,0 0,0 0,-0.1c-0.1,-1.8 1.4,-3.4 3.2,-3.5c1.9,0.1 3.3,1.8 3.2,3.7c-0.1,1.7 -1.5,3.1 -3.2,3.2z" class="st9" id="_Compound_Path_"/>
  <path d="m130.652885,201.1l0,-0.3c0,-0.8 -0.7,-1.5 -1.5,-1.5l-1.2,0c-0.3,0 -0.5,0.2 -0.5,0.4c0,0 0,0 0,0.1l0,4.4c0,0.3 0.2,0.5 0.4,0.5c0,0 0,0 0.1,0l0,0c0.3,0 0.5,-0.2 0.5,-0.4c0,0 0,0 0,-0.1l0,-1.3l1.2,1.6c0.2,0.2 0.5,0.3 0.7,0.1c0,0 0,0 0,0l0,0c0.2,-0.2 0.3,-0.5 0.1,-0.7c0,0 0,0 0,0l-1,-1.4c0.7,-0.1 1.2,-0.7 1.2,-1.4zm-0.8,-0.1c0,0.4 -0.3,0.8 -0.8,0.8c0,0 0,0 0,0l-0.6,0l0,-1.6l0.6,0c0.4,-0.1 0.8,0.3 0.8,0.8z" class="st9" id="_Compound_Path_2"/>
  <polygon id="svg_23" points="312.25285133719444,86.5 308.0528391301632,79.19999694824219 312.25285133719444,72 320.6528452336788,72 324.75285133719444,79.19999694824219 320.6528452336788,86.5 " class="st10"/>
  <polygon id="svg_24" points="312.25285133719444,101.5999984741211 308.0528391301632,94.4000015258789 312.25285133719444,87.0999984741211 320.6528452336788,87.0999984741211 324.75285133719444,94.4000015258789 320.6528452336788,101.5999984741211 " class="st11"/>
  <polygon id="svg_25" points="299.1528452336788,94 294.95283302664757,86.69999694824219 299.1528452336788,79.5 307.5528391301632,79.5 311.75285133719444,86.69999694824219 307.5528391301632,94 " class="st12"/>
  <circle id="svg_26" r="8.3" cy="86.7" cx="312.052885" class="st13"/>
  <polygon id="svg_27" points="307.75285133719444,79.5 307.75285133719444,94 320.35285744071007,86.69999694824219 " class="st13"/>
  <path id="svg_28" d="m58.052885,99.9c0,2.3 -5.1,4.1 -11.5,4.1s-11.5,-1.8 -11.5,-4.1s5.1,-4 11.5,-4s11.5,1.8 11.5,4z" class="st14"/>
  <g id="svg_29" class="st15">
   <path id="svg_30" d="m47.552885,100.6c-0.3,0.2 -0.6,0.5 -0.7,0.9c-0.1,0.1 -0.1,0.3 -0.1,0.5l0,2.1c0.7,0 1.4,0 2.1,-0.1l0,-1.7c0,-0.2 0,-0.3 0.1,-0.5c0.1,-0.3 0,-0.4 0.2,-0.6s0.1,-0.1 0.1,-0.2l-1.7,-0.4z" class="st16"/>
   <path id="svg_31" d="m52.652885,99.4l0,0c-0.1,-0.2 -0.4,-0.2 -0.8,-0.2c-1,-0.1 -2,0.5 -2.5,1.4l0.2,0l-0.2,0.4l-0.1,0l0,0.1l0,0l0,2.8l1.9,-0.2l0,-2.2c0,-0.2 0.1,-0.3 0.1,-0.5c0.1,-0.2 0.2,-0.4 0.4,-0.6c0.2,-0.2 0.5,-0.4 0.7,-0.5c0.2,-0.1 0.4,-0.3 0.3,-0.5z" class="st16"/>
  </g>
  <g id="svg_32" class="st15">
   <path id="svg_33" d="m43.352885,103.9c0.2,0 0.4,0 0.6,0.1l0,0c-0.2,-0.1 -0.4,-0.1 -0.6,-0.1z" class="st16"/>
   <path id="svg_34" d="m46.052885,102.5l0,-0.6c0,-0.2 -0.1,-0.3 -0.1,-0.5c-0.2,-0.7 -0.8,-1.2 -1.5,-1.3l0,0.7l-1,0c0.2,0.1 0,0 0.3,0.3s0.1,0.3 0.2,0.6s0,0.3 0.1,0.5l0,1.7c0.7,0.1 1.4,0.1 2.1,0.1l-0.1,-1.5l0,0z" class="st16"/>
   <path id="svg_35" d="m43.352885,103.9l0,0l0,-2.9l0,0c0,-0.2 -0.1,-0.3 -0.1,-0.5c-0.5,-1 -1.5,-1.6 -2.6,-1.5c-0.4,0 -0.7,0 -0.8,0.2l0,0c-0.1,0.2 0.1,0.4 0.3,0.5c0.2,0.1 0.5,0.3 0.7,0.5c0.2,0.2 0.3,0.4 0.4,0.6c0,0.2 0.1,0.3 0.1,0.5l0,2.1" class="st16"/>
  </g>
  <path id="svg_36" d="m59.952885,83.7c2.3,0 4.6,0.2 6.9,0.7l0,-0.2c-2.2,-0.4 -4.4,-0.6 -6.6,-0.6c-0.8,0 -1.6,0 -2.4,0.1c0.4,-1.2 0.5,-2.5 0.4,-3.8c0.1,-2.2 -0.7,-4.4 -2.3,-6c0.4,-1.6 0.3,-3.2 -0.3,-4.7c0,0 -2,-0.2 -5,1.9c-1.5,-0.4 -3,-0.5 -4.5,-0.5c-1.7,0 -3.3,0.2 -4.9,0.7l0,0c-1.5,-1.2 -3.3,-1.9 -5.2,-2c0,0 -1.2,3 -0.2,5.1l0,0c-2,2.1 -2.7,5.1 -1.8,7.9c0.2,0.6 0.3,1.2 0.5,1.7c-0.7,0 -1.4,-0.1 -2.1,-0.1c-2.2,0 -4.4,0.2 -6.6,0.7l0,0.2c2.3,-0.5 4.6,-0.7 6.9,-0.7c0.6,0 1.3,0 1.9,0.1c0.1,0.3 0.3,0.6 0.4,0.9c-0.9,0 -1.7,0 -2.6,0.1c-2.2,0.1 -4.4,0.4 -6.5,1l0,0.2c2.2,-0.6 4.5,-1 6.8,-1.1c0.8,0 1.6,-0.1 2.3,-0.1c1.6,2.7 4.1,3.8 7.9,4.1c-0.9,0.5 -1.5,1.4 -1.6,2.4c-4.5,1.8 -4.5,-2.4 -7,-3.1c-0.2,-0.1 -0.3,-0.1 -0.5,-0.1c-0.5,-0.1 -1,0 -1.1,0.2l0,0l0,0.1c0,0.1 0,0.1 0.1,0.2c0.2,0.3 0.5,0.4 0.8,0.5c0.3,0.2 0.7,0.5 0.9,0.6c1.5,1.7 1.7,4.8 6.8,3.8l0,3.9c0,0.2 -0.1,0.3 -0.1,0.5c-0.1,0.2 -0.2,0.4 -0.4,0.6c-0.2,0.2 -0.5,0.4 -0.7,0.5c-0.2,0.1 -0.4,0.3 -0.3,0.5l0,0c0.1,0.2 0.3,0.2 0.8,0.2c1.1,0.1 2.1,-0.5 2.6,-1.5c0.1,-0.1 0.1,-0.3 0.1,-0.5l0,0l0,-5.1c0.1,-0.8 0.5,-1.4 0.6,-1.3l0,7.2c0,0.2 0,0.3 -0.1,0.5c-0.1,0.3 0,0.4 -0.2,0.6s0,0.1 -0.4,0.3c-0.2,0.1 -0.2,0.3 -0.2,0.5s0.2,0.3 0.7,0.3c1.1,-0.2 1.9,-0.6 2.2,-1.5c0.1,-0.1 0.1,-0.3 0.1,-0.5l0,-7.7c0,-0.1 0.1,-0.3 0.2,-0.3c0,0 0,0 0.1,0c0.2,0 0.3,0.1 0.3,0.3l0,7.7c0,0.2 0,0.3 0.1,0.5c0.2,0.8 1.1,1.3 2.2,1.5c0.3,0.1 0.6,0 0.7,-0.3c0,-0.2 0,-0.4 -0.2,-0.5c-0.4,-0.2 -0.1,0 -0.4,-0.3s-0.1,-0.4 -0.2,-0.6s0,-0.3 -0.1,-0.5l0,-7.2c0.1,-0.1 0.5,0.4 0.6,1.3l0,4.8l0,0c0,0.2 0,0.3 0.1,0.5c0.5,1 1.5,1.6 2.6,1.5c0.4,0 0.7,0 0.8,-0.2l0,0c0.1,-0.2 -0.1,-0.4 -0.3,-0.5c-0.2,-0.1 -0.5,-0.3 -0.7,-0.5c-0.2,-0.2 -0.3,-0.4 -0.4,-0.6c0,-0.2 -0.1,-0.3 -0.1,-0.5l0,-5.7c0,-1.2 -0.7,-2.2 -1.7,-2.8c3.7,-0.2 6.5,-1.3 7.9,-4.1c0.8,0 1.7,0 2.5,0.1c2.3,0.1 4.6,0.5 6.8,1.1l0,-0.2c-2.1,-0.6 -4.3,-0.9 -6.5,-1c-0.9,-0.1 -1.8,-0.1 -2.7,-0.1l0.3,-0.9c0.7,-0.2 1.3,-0.2 2,-0.2z" class="st17"/>
  <path id="svg_37" d="m55.452885,82.7c0.1,-2.4 -1.8,-4.4 -4.1,-4.5c-0.1,0 -0.1,0 -0.2,0l0,0c-2.7,0 -3.1,0.2 -4.9,0.2s-2.2,-0.2 -4.7,-0.2l-0.4,0c-2.4,0 -4.3,1.9 -4.3,4.3c0,0 0,0.1 0,0.1c0,2 1.2,3.7 3,4.5l0,0c0,0.2 3.6,1.6 11.3,0.6c0.4,0 0.7,-0.1 1.1,-0.2l0,0c1.9,-0.8 3.2,-2.7 3.2,-4.8z" class="st18"/>
  <path id="svg_38" d="m41.252885,78.7l0.4,0c2.5,0 2.9,0.2 4.7,0.2s2.2,-0.2 4.9,-0.2l0,0c2.3,0 4.2,1.9 4.3,4.2l0,-0.2c0.1,-2.4 -1.8,-4.4 -4.1,-4.5c-0.1,0 -0.1,0 -0.2,0l0,0c-2.7,0 -3.1,0.2 -4.9,0.2s-2.2,-0.2 -4.7,-0.2l-0.4,0c-2.4,0 -4.3,1.9 -4.3,4.3c0,0 0,0.1 0,0.1l0,0.2c0.1,-2.3 2,-4.1 4.3,-4.1z" class="st19"/>
  <ellipse id="svg_39" ry="2.8" rx="1.9" cy="82.6" cx="41.252885" class="st9"/>
  <ellipse id="svg_40" ry="1.8" rx="1.3" cy="82.6" cx="41.452885" class="st20"/>
  <circle id="svg_41" r="0.4" cy="81.9" cx="40.852885" class="st9"/>
  <ellipse id="svg_42" ry="2.8" rx="1.9" cy="82.6" cx="51.452885" class="st9"/>
  <ellipse id="svg_43" ry="1.8" rx="1.3" cy="82.7" cx="51.252885" class="st20"/>
  <circle id="svg_44" r="0.3" cy="81.9" cx="50.952885" class="st9"/>
  <circle id="svg_45" r="0.5" cy="85.1" cx="46.252885" class="st20"/>
  <path id="svg_46" d="m47.152885,86.1c-0.1,0 -0.1,0.1 -0.1,0.2c-0.2,0.4 -0.7,0.6 -1.2,0.4c-0.2,-0.1 -0.3,-0.2 -0.4,-0.4c0,-0.1 0,-0.1 -0.1,-0.2c-0.1,0.1 -0.1,0.1 -0.1,0.2c0.1,0.5 0.6,0.8 1.1,0.8c0.5,0 1,-0.3 1.1,-0.8c-0.2,-0.1 -0.2,-0.2 -0.3,-0.2z" class="st20"/>
  <path id="svg_47" d="m33.652885,90.4c0,0.2 -0.1,0.3 -0.3,0.3c-0.2,0 -0.3,-0.1 -0.3,-0.3c0,-0.1 0.3,-1.4 0.3,-1.4s0.3,1.2 0.3,1.4z" class="st14"/>
  <ellipse id="svg_48" ry="0.2" rx="0.2" cy="90.285342" cx="33.467784" class="st21" transform="matrix(0.283,-0.9591,0.9591,0.283,-61.421,95.2199) "/>
  <ellipse id="svg_49" ry="0.2" rx="0.2" cy="90.639567" cx="34.66819" class="st21" transform="matrix(0.5858,-0.8105,0.8105,0.5858,-58.3739,64.2975) "/>
  <ellipse id="svg_50" ry="0.3" rx="0.2" cy="90.737312" cx="35.825021" class="st21" transform="matrix(0.9227,-0.3856,0.3856,0.9227,-32.096,20.2005) "/>
  <ellipse id="svg_51" ry="0.3" rx="0.2" cy="91.491958" cx="36.540892" class="st21" transform="matrix(0.7507,-0.6606,0.6606,0.7507,-50.9487,45.8687) "/>
  <ellipse id="svg_52" ry="0.3" rx="0.2" cy="93.131461" cx="36.826479" class="st21" transform="matrix(0.5,-0.866,0.866,0.5,-61.4509,77.0627) "/>
  <ellipse id="svg_53" ry="0.3" rx="0.2" cy="93.738328" cx="37.31884" class="st21" transform="matrix(0.1324,-0.9912,0.9912,0.1324,-59.1404,116.7128) "/>
  <ellipse id="svg_54" ry="0.2" rx="0.3" cy="92.311277" cx="40.049187" class="st21" transform="matrix(0.9977,-0.06731876,0.06731876,0.9977,-6.1194,2.7942) "/>
  <path id="svg_55" d="m41.352885,91.8c0,0.1 0,0.2 -0.2,0.3s-0.3,-0.1 -0.3,-0.2s0.1,-0.2 0.3,-0.3s0.2,0.1 0.2,0.2z" class="st21"/>
  <path id="svg_56" d="m43.052885,88.9c-0.4,0.2 -0.7,0.5 -0.9,0.8c0.3,-0.1 8.3,-1.8 9.1,1.9c-0.1,-1.1 -0.7,-2.1 -1.7,-2.7c-2.2,0.2 -4.3,0.2 -6.5,0z"/>
  <path id="svg_57" d="m41.452885,91.3l0,2.2l-0.2,0c-0.1,-0.7 0,-1.5 0.2,-2.2z"/>
  <line id="svg_58" y2="100.5" x2="48.052885" y1="100.9" x1="49.152885" class="st22"/>
  <line id="svg_59" y2="103.9" x2="49.752885" y1="103.8" x1="50.052885" class="st22"/>
  <line id="svg_60" y2="103.7" x2="50.752885" y1="103.8" x1="50.452885" class="st22"/>
  <line id="svg_61" y2="103.8" x2="50.052885" y1="103.9" x1="49.752885" class="st22"/>
  <path id="svg_62" d="m144.252885,97.9c0,2.3 -5.1,4.1 -11.5,4.1s-11.5,-1.8 -11.5,-4.1s5.1,-4 11.5,-4c6.4,0 11.5,1.7 11.5,4z" class="st14"/>
  <g id="svg_63" class="st15">
   <path id="svg_64" d="m133.752885,98.5c-0.3,0.2 -0.6,0.5 -0.7,0.9c-0.1,0.1 -0.1,0.3 -0.1,0.5l0,2.1c0.7,0 1.4,0 2.1,-0.1l0,-1.7c0,-0.2 0,-0.3 0.1,-0.5c0.1,-0.3 0,-0.4 0.2,-0.6s0.1,-0.1 0.1,-0.2l-1.7,-0.4z" class="st16"/>
   <path id="svg_65" d="m138.852885,97.4l0,0c-0.1,-0.2 -0.4,-0.2 -0.8,-0.2c-1,-0.1 -2,0.5 -2.5,1.4l0.2,0l-0.2,0.4l-0.1,0l0,0.1l0,0l0,2.8l1.9,-0.2l0,-2.2c0,-0.2 0.1,-0.3 0.1,-0.5c0.1,-0.2 0.2,-0.4 0.4,-0.6c0.2,-0.2 0.5,-0.4 0.7,-0.5c0.2,-0.2 0.4,-0.4 0.3,-0.5z" class="st16"/>
  </g>
  <g id="svg_66" class="st15">
   <path id="svg_67" d="m129.552885,101.8c0.2,0 0.4,0 0.6,0.1l0,0c-0.2,-0.1 -0.4,-0.1 -0.6,-0.1z" class="st16"/>
   <path id="svg_68" d="m132.252885,100.5l0,-0.6c0,-0.2 -0.1,-0.3 -0.1,-0.5c-0.2,-0.7 -0.8,-1.2 -1.5,-1.3l0,0.7l-1,0c0.2,0.1 0,0 0.3,0.3s0.1,0.3 0.2,0.6s0,0.3 0.1,0.5l0,1.7c0.7,0.1 1.4,0.1 2.1,0.1l0,-1.5l-0.1,0z" class="st16"/>
   <path id="svg_69" d="m129.552885,101.8l0,0l0,-2.8l0,0c0,-0.2 -0.1,-0.3 -0.1,-0.5c-0.5,-1 -1.5,-1.6 -2.6,-1.5c-0.4,0 -0.7,0 -0.8,0.2l0,0c-0.1,0.2 0.1,0.4 0.3,0.5c0.2,0.1 0.5,0.3 0.7,0.5c0.2,0.2 0.3,0.4 0.4,0.6c0,0.2 0.1,0.3 0.1,0.5l0,2.1" class="st16"/>
  </g>
  <path id="svg_70" d="m146.152885,81.6c2.3,0 4.6,0.2 6.9,0.7l0,-0.2c-2.2,-0.4 -4.4,-0.6 -6.6,-0.6c-0.8,0 -1.6,0 -2.4,0.1c0.4,-1.2 0.5,-2.5 0.4,-3.8c0.1,-2.2 -0.7,-4.4 -2.3,-6c0.4,-1.6 0.3,-3.2 -0.3,-4.7c0,0 -2,-0.2 -5,1.9c-1.5,-0.4 -3,-0.5 -4.5,-0.5c-1.7,0 -3.3,0.2 -4.9,0.7l0,0c-1.5,-1.2 -3.3,-1.9 -5.2,-2c0,0 -1.2,3 -0.2,5.1l0,0c-2,2.1 -2.7,5.1 -1.8,7.9c0.2,0.6 0.3,1.2 0.5,1.7c-0.7,0 -1.4,-0.1 -2.1,-0.1c-2.2,0 -4.4,0.2 -6.6,0.7l0,0.2c2.3,-0.5 4.6,-0.7 6.9,-0.7c0.6,0 1.3,0 1.9,0.1c0.1,0.3 0.3,0.6 0.4,0.9c-0.9,0 -1.7,0 -2.6,0.1c-2.2,0.1 -4.4,0.4 -6.5,1l0,0.2c2.2,-0.6 4.5,-1 6.8,-1.1c0.8,0 1.6,-0.1 2.3,-0.1c1.6,2.7 4.1,3.8 7.9,4.1c-0.9,0.5 -1.5,1.4 -1.6,2.4c-4.5,1.8 -4.5,-2.4 -7,-3.1c-0.2,-0.1 -0.3,-0.1 -0.5,-0.1c-0.5,-0.1 -1,0 -1.1,0.2l0,0l0,0.1c0,0.1 0,0.1 0.1,0.2c0.2,0.3 0.5,0.4 0.8,0.5c0.3,0.2 0.7,0.5 0.9,0.6c1.5,1.7 1.7,4.8 6.8,3.8l0,3.9c0,0.2 -0.1,0.3 -0.1,0.5c-0.1,0.2 -0.2,0.4 -0.4,0.6c-0.2,0.2 -0.5,0.4 -0.7,0.5c-0.2,0.1 -0.4,0.3 -0.3,0.5l0,0c0.1,0.2 0.3,0.2 0.8,0.2c1.1,0.1 2.1,-0.5 2.6,-1.5c0.1,-0.1 0.1,-0.3 0.1,-0.5l0,0l0,-5c0.1,-0.8 0.5,-1.4 0.6,-1.3l0,7.2c0,0.2 0,0.3 -0.1,0.5c-0.1,0.3 0,0.4 -0.2,0.6s0,0.1 -0.4,0.3c-0.2,0.1 -0.2,0.3 -0.2,0.5s0.2,0.3 0.7,0.3c1.1,-0.2 1.9,-0.6 2.2,-1.5c0.1,-0.1 0.1,-0.3 0.1,-0.5l0,-7.7c0,-0.1 0.1,-0.3 0.2,-0.3c0,0 0,0 0.1,0c0.2,0 0.3,0.1 0.3,0.3l0,7.7c0,0.2 0,0.3 0.1,0.5c0.2,0.8 1.1,1.3 2.2,1.5c0.3,0.1 0.6,0 0.7,-0.3c0,-0.2 0,-0.4 -0.2,-0.5c-0.4,-0.2 -0.1,0 -0.4,-0.3s-0.1,-0.4 -0.2,-0.6s0,-0.3 -0.1,-0.5l0,-7.2c0.1,-0.1 0.5,0.4 0.6,1.3l0,4.8l0,0c0,0.2 0,0.3 0.1,0.5c0.5,1 1.5,1.6 2.6,1.5c0.4,0 0.7,0 0.8,-0.2l0,0c0.1,-0.2 -0.1,-0.4 -0.3,-0.5c-0.2,-0.1 -0.5,-0.3 -0.7,-0.5c-0.2,-0.2 -0.3,-0.4 -0.4,-0.6c0,-0.2 -0.1,-0.3 -0.1,-0.5l0,-5.7c0,-1.2 -0.7,-2.2 -1.7,-2.8c3.7,-0.2 6.5,-1.3 7.9,-4.1c0.8,0 1.7,0 2.5,0.1c2.3,0.1 4.6,0.5 6.8,1.1l0,-0.2c-2.1,-0.6 -4.3,-0.9 -6.5,-1c-0.9,-0.1 -1.8,-0.1 -2.7,-0.1l0.3,-0.9c0.6,-0.3 1.3,-0.4 2,-0.3z" class="st17"/>
  <path id="svg_71" d="m141.652885,80.7c0.1,-2.4 -1.8,-4.4 -4.1,-4.5c-0.1,0 -0.1,0 -0.2,0l0,0c-2.7,0 -3.1,0.2 -4.9,0.2s-2.2,-0.2 -4.7,-0.2l-0.4,0c-2.4,0 -4.3,1.9 -4.3,4.3c0,0 0,0.1 0,0.1c0,2 1.2,3.7 3,4.5l0,0c0,0.2 3.6,1.6 11.3,0.6c0.4,0 0.7,-0.1 1.1,-0.2l0,0c1.9,-0.8 3.2,-2.7 3.2,-4.8z" class="st18"/>
  <path id="svg_72" d="m127.452885,76.6l0.4,0c2.5,0 2.9,0.2 4.7,0.2s2.2,-0.2 4.9,-0.2l0,0c2.3,0 4.2,1.9 4.3,4.2l0,-0.2c0.1,-2.4 -1.8,-4.4 -4.1,-4.5c-0.1,0 -0.1,0 -0.2,0l0,0c-2.7,0 -3.1,0.2 -4.9,0.2s-2.2,-0.2 -4.7,-0.2l-0.4,0c-2.4,0 -4.3,1.9 -4.3,4.3c0,0 0,0.1 0,0.1l0,0.2c0.1,-2.3 2,-4.1 4.3,-4.1z" class="st19"/>
  <ellipse id="svg_73" ry="2.8" rx="1.9" cy="80.6" cx="127.452885" class="st9"/>
  <ellipse id="svg_74" ry="1.8" rx="1.3" cy="80.6" cx="127.652885" class="st20"/>
  <circle id="svg_75" r="0.4" cy="79.8" cx="127.052885" class="st9"/>
  <ellipse id="svg_76" ry="2.8" rx="1.9" cy="80.6" cx="137.652885" class="st9"/>
  <ellipse id="svg_77" ry="1.8" rx="1.3" cy="80.6" cx="137.452885" class="st20"/>
  <circle id="svg_78" r="0.3" cy="79.9" cx="137.152885" class="st9"/>
  <circle id="svg_79" r="0.5" cy="83" cx="132.452885" class="st20"/>
  <path id="svg_80" d="m133.352885,84.1c-0.1,0 -0.1,0.1 -0.1,0.2c-0.2,0.4 -0.7,0.6 -1.2,0.4c-0.2,-0.1 -0.3,-0.2 -0.4,-0.4c0,-0.1 0,-0.1 0,-0.2c-0.1,0 -0.1,0 -0.2,0c0,0 0,0.1 0,0.2c0.1,0.5 0.6,0.8 1.1,0.8c0.5,0 1,-0.3 1.1,-0.8c-0.2,-0.1 -0.2,-0.2 -0.3,-0.2z" class="st20"/>
  <path id="svg_81" d="m119.852885,88.3c0,0.2 -0.1,0.3 -0.3,0.3c-0.1,0 -0.3,-0.2 -0.3,-0.3c0,-0.1 0.3,-1.4 0.3,-1.4s0.3,1.3 0.3,1.4z" class="st14"/>
  <ellipse id="svg_82" ry="0.2" rx="0.2" cy="88.285342" cx="119.667784" class="st21" transform="matrix(0.283,-0.9591,0.9591,0.283,2.3608,176.4778) "/>
  <ellipse id="svg_83" ry="0.2" rx="0.2" cy="88.539567" cx="120.86819" class="st21" transform="matrix(0.5858,-0.8105,0.8105,0.5858,-21.0009,133.2513) "/>
  <ellipse id="svg_84" ry="0.3" rx="0.2" cy="88.637312" cx="122.025021" class="st21" transform="matrix(0.9227,-0.3856,0.3856,0.9227,-24.6214,53.2697) "/>
  <ellipse id="svg_85" ry="0.3" rx="0.2" cy="89.091958" cx="122.340892" class="st21" transform="matrix(0.7507,-0.6606,0.6606,0.7507,-27.9694,101.9263) "/>
  <ellipse id="svg_86" ry="0.3" rx="0.2" cy="91.131461" cx="123.026479" class="st21" transform="matrix(0.5,-0.866,0.866,0.5,-16.5781,150.6413) "/>
  <ellipse id="svg_87" ry="0.3" rx="0.2" cy="91.738328" cx="123.51884" class="st21" transform="matrix(0.1324,-0.9912,0.9912,0.1324,17.6931,200.4106) "/>
  <ellipse id="svg_88" ry="0.2" rx="0.3" cy="90.211277" cx="126.249187" class="st21" transform="matrix(0.9977,-0.06731876,0.06731876,0.9977,-5.7827,8.5918) "/>
  <path id="svg_89" d="m127.552885,89.8c0,0.1 0,0.2 -0.2,0.3s-0.3,-0.1 -0.3,-0.2s0.1,-0.2 0.3,-0.3s0.2,0.1 0.2,0.2z" class="st21"/>
  <path id="svg_90" d="m129.252885,86.8c-0.4,0.2 -0.7,0.5 -0.9,0.8c0.3,-0.1 8.3,-1.8 9.1,1.9c-0.1,-1.1 -0.7,-2.1 -1.7,-2.7c-2.2,0.2 -4.3,0.2 -6.5,0z"/>
  <path id="svg_91" d="m127.652885,89.3l0,2.2l-0.2,0c-0.1,-0.7 0,-1.5 0.2,-2.2z"/>
  <line id="svg_92" y2="98.5" x2="134.252885" y1="98.9" x1="135.352885" class="st22"/>
  <line id="svg_93" y2="101.9" x2="135.452885" y1="101.8" x1="135.852885" class="st22"/>
  <line id="svg_94" y2="101.9" x2="135.552885" y1="101.8" x1="135.852885" class="st22"/>
  <line id="svg_95" y2="101.7" x2="136.952885" y1="101.6" x1="137.352885" class="st22"/>
  <line id="svg_96" y2="101.7" x2="136.652885" y1="101.8" x1="136.252885" class="st22"/>
  <g id="g10">
   <g id="g3393">
    <path d="m235.852885,85.7c-0.2,7.6 -6.5,13.6 -14.1,13.5s-13.6,-6.5 -13.5,-14.1c0.2,-7.5 6.3,-13.5 13.8,-13.5c7.7,0.1 13.9,6.4 13.8,14.1" class="st23" id="path22"/>
    <path d="m208.852885,89.2c0,0 -1,-14.7 12.5,-15.1l-0.9,-1.6l-7.4,2.5l-2.1,2.4l-1.8,3.5l-1,4.1l0.3,2.7" class="st24" id="path24"/>
    <path d="m212.652885,76c-2.5,2.6 -3.9,6.1 -3.9,9.7l0,0c0,3.6 1.4,7.1 3.9,9.7l0,0c2.5,2.6 5.9,4 9.4,4l0,0c3.6,0 7,-1.4 9.4,-4l0,0c2.5,-2.6 3.9,-6.1 3.9,-9.7l0,0c0,-3.6 -1.4,-7.1 -4,-9.7l0,0c-2.5,-2.6 -5.9,-4 -9.4,-4l0,0c-3.4,0 -6.8,1.5 -9.3,4zm-0.6,20c-2.7,-2.7 -4.2,-6.4 -4.2,-10.3l0,0c0,-3.8 1.5,-7.5 4.2,-10.3l0,0c2.6,-2.7 6.2,-4.2 10,-4.3l0,0c3.8,0 7.4,1.6 10,4.3l0,0c2.7,2.7 4.2,6.4 4.2,10.3l0,0c0,3.8 -1.4,7.5 -4.1,10.3l0,0c-2.6,2.7 -6.2,4.2 -10,4.3l0,0c-3.8,-0.1 -7.4,-1.6 -10.1,-4.3l0,0" class="st7" id="path26"/>
    <path d="m227.852885,85.7l-2.1,0.3l-2.8,0.3l-1.8,0.1l-1.8,-0.1l-1.4,-0.4l-1.2,-1.3l-0.9,-2.7l-0.2,-0.6l-1.3,-0.4l-0.7,-1.2l-0.5,-1.8l0.6,-1.5l1.4,-0.5l1.1,0.5l0.5,1.2l0.6,-0.1l0.2,-0.3l-0.2,-1.2l-0.1,-1.5l0.3,-2.1l0,-1.2l1,-1.5l1.7,-1.2l2.9,-1.3l3.2,0.5l2.8,2l1.3,2.1l0.8,1.5l0.2,3.8l-0.6,3.2l-1.1,2.9l-1.2,1.6" class="st25" id="path28"/>
    <path d="m226.052885,94.8l-7.5,0.3l0,1.3l0.6,4.4l-0.3,0.4l-5.2,-1.8l-0.4,-0.6l-0.5,-5.9l-1.2,-3.6l-0.3,-0.8l4.2,-2.9l1.3,-0.5l1.1,1.4l1,0.9l1.1,0.4l0.5,0.2l0.6,2.7l0.5,0.6l1.2,-0.4l-0.8,1.6l4.6,2.1l-0.5,0.2" class="st26" id="path30"/>
    <path d="m213.652885,76.5l1.4,-0.5l1.1,0.5l0.5,1.2l0.6,-0.1l0.2,-0.6l-0.3,-1.2l0.3,-2.9l-0.3,-1.6l0.9,-1.1l2,-1.6l-0.6,-0.8l-2.9,1.4l-1.2,0.9l-0.7,1.5l-1,1.4l-0.3,1.7l0.3,1.8" class="st27" id="path32"/>
    <path d="m215.752885,71.6c0,0 0.8,-1.9 3.9,-2.9s0.2,-0.7 0.2,-0.7l-3.4,1.3l-1.3,1.3l-0.6,1l1.2,0" class="st28" id="path34"/>
    <path d="m214.252885,76.1c0,0 -1.1,-3.7 3.1,-4.2l-0.2,-0.6l-2.9,0.7l-0.8,2.7l0.2,1.8l0.6,-0.4" class="st28" id="path36"/>
    <path d="m215.852885,81l0.7,-0.7c0.2,0 0.3,0.2 0.4,0.4c0.1,0.4 0.2,3.7 2.5,5.5c0.2,0.2 -1.7,-0.3 -1.7,-0.3l-1.7,-2.6" class="st29" id="path38"/>
    <path d="m225.552885,80c0,0 0.1,-1.6 0.6,-1.5c0.2,0.1 0.4,0.3 0.4,0.6c0,0 -1,0.7 -1,0.9" class="st29" id="path40"/>
    <path d="m229.852885,74.2c0,0 -0.9,0.2 -0.9,0.9s0.9,0.2 1.1,0.1" class="st29" id="path42"/>
    <path d="m223.552885,74.2c0,0 -1.1,0.2 -1.1,0.9s1.3,0.7 1.7,0.4" class="st29" id="path44"/>
    <path d="m216.452885,77.7c0,0 -2,-1.2 -2.2,-0.1s-0.7,2 0.3,3.2l-0.7,-0.2l-0.6,-1.6l-0.2,-1.6l1.2,-1.3l1.4,0.1l0.8,0.6l0,0.9" class="st29" id="path46"/>
    <path d="m217.352885,74.3c0,0 0.9,-4.6 5.4,-5.5c3.7,-0.7 5.7,0.2 6.4,1c0,0 -3.3,-3.9 -6.5,-2.7s-5.5,3.4 -5.4,4.8c0.1,0.8 0.1,1.6 0.1,2.4" class="st29" id="path48"/>
    <path d="m229.552885,70.4c0,0 -1.5,-0.1 -1.6,1.3c0,0.1 0,0.3 0.1,0.4c0,0 1.2,-1.4 1.9,-0.6" class="st29" id="path50"/>
    <path d="m222.852885,72.2c0,0 -0.3,-2.1 -2,-0.9c-1.1,0.8 -1,1.9 -0.8,2.1s0.1,0.6 0.3,0.3s0.1,-1.2 0.7,-1.5s1.5,-0.5 1.8,0" class="st29" id="path52"/>
    <path d="m217.952885,86.4l-4.9,2.2c0,0 2,8.1 1,10.7l-0.7,-0.3l-0.1,-3.1l-1.4,-5.9l-0.6,-1.6l5.1,-3.4l1.6,1.4" class="st30" id="path54"/>
    <path d="m218.452885,90.9l0.7,0.8l0,3.2l-0.8,0c0,0 -0.1,-2.2 -0.1,-2.5s0.1,-1.2 0.1,-1.2" class="st30" id="path56"/>
    <path d="m218.452885,95.4l-2.4,0.1l0.7,0.5l1.7,0.3" class="st30" id="path58"/>
    <path d="m226.552885,94.9l1.9,-0.1l0.5,4.8l-2,0.3l-0.4,-5" class="st26" id="path60"/>
    <path d="m227.052885,94.9l2.9,-0.2c0,0 1.2,-3 1.2,-3.2s1,-4.4 1,-4.4l-2.4,-2.5l-0.5,-0.4l-1.3,1.3l0,4.9l-0.9,4.5" class="st26" id="path62"/>
    <path d="m228.352885,94.5l-1.8,0.4l0.3,1.5c0.7,0.3 1.8,-0.5 1.8,-0.5" class="st30" id="path64"/>
    <path d="m228.452885,85.3l3.7,2.7l0.1,-1.3l-2.8,-2.6l-1,1.2" class="st30" id="path66"/>
    <path d="m220.252885,105.2l-1.1,-4.4l-0.5,-3.2l-0.1,-2.4l4.9,-0.3l3.1,0l-0.3,5.5l0.5,4.2l-0.1,0.8l-4,0.3l-2.4,-0.5" class="st9" id="path68"/>
    <path d="m225.852885,94.8c-0.1,3.1 0,6.3 0.5,9.3c-1.2,0.7 -2.5,1.1 -3.9,1.3l4.4,-0.2l0.5,-0.3l-0.6,-8.6l-0.2,-1.8" class="st28" id="path70"/>
    <path d="m229.052885,99.2l2,-0.6l3.9,-0.2l0.6,-1.8l-1,-3.1l-1.2,-0.2l-1.7,0.5l-1.6,0.8l-0.9,-0.2l-0.7,0.3" class="st9" id="path72"/>
    <path d="m229.052885,98.2c0.5,-0.2 1,-0.4 1.6,-0.6l-0.6,-2.9l0.7,-0.3c0,0 0.5,2.7 0.5,3c0,0 2.9,0.2 3.2,0.2c0.4,-0.8 0.5,-1.6 0.5,-2.5l0.6,1.7l0.1,0.9l-0.8,1.3l-0.9,0.2l-1.6,-0.1l-0.5,-0.7l-1.8,0.3l-0.6,0.2" class="st28" id="path74"/>
    <path d="m226.952885,94.4l-1.1,-2.9l-1.2,-1.7c0,0 0.3,-0.7 0.6,-0.7l1.2,0l1.1,0.4l-0.1,1.9l-0.5,3" class="st9" id="path76"/>
    <path d="m227.152885,93.5c-0.6,-1 -1.1,-2.1 -1.5,-3.3c0,0 0.3,-0.6 0.6,-0.5s1.1,0.6 1.1,0.6l0,-1l-1.8,-0.4l-1.2,0.2l2,4.8l0.4,0.1" class="st28" id="path78"/>
    <path d="m220.752885,86.5l-1.4,-0.2l-1.4,-0.4l0,0.5l0.7,0.7l2.1,0.9" class="st9" id="path80"/>
    <path d="m218.452885,86.7c0.7,0.3 1.4,0.5 2.1,0.5l0.1,0.6l-1.5,-0.3l-0.9,-0.6l0.2,-0.2" class="st28" id="path82"/>
    <path d="m229.052885,89.2c-0.8,0 -1.6,-0.1 -2.4,-0.3c0,-0.3 0,-0.5 0,-0.8c0.3,-0.1 0.5,-0.2 0.8,-0.2c-0.3,-0.1 -0.6,-0.2 -0.9,-0.1c0,-0.2 -0.1,-0.3 -0.1,-0.5c0.5,-0.2 1.7,-1.3 2.4,-1c0.3,0.2 0.4,1.2 0.5,1.8c-0.1,0.4 -0.1,0.8 -0.3,1.1" class="st23" id="path84"/>
    <path d="m229.052885,89.2c-0.8,0 -1.6,-0.1 -2.4,-0.3c0,-0.3 0,-0.5 0,-0.8c0.3,-0.1 0.5,-0.2 0.8,-0.2c-0.3,-0.1 -0.6,-0.2 -0.9,-0.1c0,-0.2 -0.1,-0.3 -0.1,-0.5c0.5,-0.2 1.7,-1.3 2.4,-1c0.3,0.2 0.4,1.2 0.5,1.8c-0.1,0.4 -0.1,0.8 -0.3,1.1z" class="st31" id="path86"/>
    <path d="m224.752885,87.8l0,0.2c-0.3,0.2 -0.7,0.2 -1,0.3c0.4,0 0.8,0.1 1.1,0.3l0,0.5c-0.5,0.4 -1,0.8 -1.6,1.2c-0.5,0.3 -1,0.4 -1.6,0.5c-0.2,0 -0.2,-0.2 -0.2,-0.4c-0.3,-0.6 -0.4,-1.1 -0.5,-1.8c0,-0.8 -0.1,-2.2 0.8,-2c0.7,0.2 1.4,0.4 2.1,0.8c0.2,0.2 0.6,0.3 0.9,0.4" class="st23" id="path88"/>
    <path d="m224.752885,87.8l0,0.2c-0.3,0.2 -0.7,0.2 -1,0.3c0.4,0 0.8,0.1 1.1,0.3l0,0.5c-0.5,0.4 -1,0.8 -1.6,1.2c-0.5,0.3 -1,0.4 -1.6,0.5c-0.2,0 -0.2,-0.2 -0.2,-0.4c-0.3,-0.6 -0.4,-1.1 -0.5,-1.8c0,-0.8 -0.1,-2.2 0.8,-2c0.7,0.2 1.4,0.4 2.1,0.8c0.2,0.2 0.6,0.3 0.9,0.4z" class="st31" id="path90"/>
    <path d="m225.252885,88.7c-0.1,-0.3 -0.1,-0.7 -0.1,-1c1.2,-0.8 1.4,1.4 0.1,1" class="st23" id="path92"/>
    <path d="m225.252885,88.7c-0.1,-0.3 -0.1,-0.7 -0.1,-1c1.2,-0.7 1.4,1.4 0.1,1z" class="st31" id="path94"/>
    <path d="m227.052885,89.1c0,0 -0.4,-0.5 -0.1,-0.7s0.5,0 0.7,-0.3s0,-0.4 0.1,-0.7s0.3,-0.4 0.6,-0.4s1,-0.2 1.1,0.1l-0.3,-0.9l-0.6,-0.2l-2,1.2l-0.1,0.6l0,1.2" class="st24" id="path96"/>
    <path d="m221.452885,90.8c-0.1,-0.8 -0.1,-1.6 -0.2,-2.5c-0.1,-1.2 0.3,-1 1.4,-1c0.4,0 0.7,0.1 1.1,0.3c0.3,0.6 -0.5,0.4 0.3,0.9s1.9,-0.2 1.6,-1.1c-0.1,-0.2 -0.8,-0.1 -1,-0.2l-1.2,-0.6c-0.5,-0.3 -1.7,-0.7 -2.3,-0.3c-1.4,1 0.1,3.3 0.6,4.3" class="st24" id="path98"/>
    <path d="m222.852885,72.2c-1.4,-0.3 -2.1,0.6 -2.6,1.6c-0.4,-0.1 -0.2,-0.6 -0.1,-0.9c0.4,-0.9 1.2,-1.5 2.1,-1.5c0.4,0.1 0.9,0.4 0.6,0.8" class="st7" id="path100"/>
    <path d="m229.852885,73.9l0,0c0.4,0.7 0.7,1.4 1.1,2c-0.3,0.6 -2.1,1.2 -2,0.1c0.4,-0.2 1.1,0 1.4,-0.2c-0.3,-0.7 -0.5,-1.3 -0.5,-1.9" class="st7" id="path102"/>
    <path d="m223.552885,73.9c0.2,0.6 0.5,1.1 0.8,1.6c0.2,0.2 0.6,0.4 0.4,1c-0.1,0.2 -0.3,0.4 -0.6,0.5c-0.7,0.2 -2.3,0 -1.7,-0.8c0.6,0 1.3,0.4 1.7,0c-0.2,-0.6 -0.8,-1.6 -0.6,-2.3" class="st7" id="path104"/>
    <path d="m229.552885,79.6c-1.1,0.9 -2.5,1.3 -3.9,1.2c-0.4,-0.4 -0.5,-1 -0.1,-1.5c0.2,0.3 0.1,0.9 0.6,1c1,0.2 2.1,-0.6 2.8,-0.8c0.4,-0.7 0,-1 -0.4,-1.4c-0.8,-0.9 -1.8,-2.1 -1.8,-3.5c0.3,-0.2 0.3,0.3 0.4,0.5c0.6,1.1 1.3,2.1 2.2,3c0.2,0.2 0.5,0.4 0.5,0.5c0,0.3 -0.3,0.8 -0.3,1" class="st7" id="path106"/>
    <path d="m216.052885,78.9c-0.3,-0.2 -0.4,-1 -0.8,-1c-0.5,0 -0.4,1 -0.4,1.7c-0.4,-0.6 -0.4,-1.3 -0.2,-1.9c-0.3,-0.2 -0.4,0.2 -0.6,0.3c0.2,-1.7 2.4,-0.8 2,0.9" class="st7" id="path108"/>
    <path d="m230.252885,80.3c-0.4,1.1 -1.4,1.9 -2.6,1.9c0,-0.3 0,-0.6 0,-0.9c0.9,-0.2 1.8,-0.5 2.6,-1" class="st7" id="path110"/>
    <path d="m223.552885,80.9c1.2,0.4 2.5,0.6 3.8,0.5c0.1,0.3 0.1,0.6 0.1,0.9c-1.7,0 -3.5,-0.3 -3.9,-1.4" class="st7" id="path112"/>
    <path d="m223.352885,81.7c0.6,1.6 2.7,1.4 4.5,1.3c-0.1,0.2 -0.2,0.4 -0.5,0.5c-1,0.3 -2,0.3 -3,0c-0.5,-0.3 -0.8,-0.7 -1.1,-1.2c-0.1,-0.1 -0.7,-0.5 0.1,-0.6" class="st7" id="path114"/>
    <path d="m229.552885,90.3c-0.7,1.3 -1.4,2.5 -2.3,3.6c0.4,-1.4 0.6,-2.8 0.6,-4.2c0.6,-0.3 1.3,0 1.7,0.6" class="st32" id="path116"/>
    <path d="m233.452885,94.8c-0.8,0.2 -1.4,1 -2.2,0.9c0.5,-0.7 1.3,-1 2.2,-0.9" class="st7" id="path118"/>
    <path d="m233.752885,96c-0.7,0.1 -1.4,0.1 -2.1,0.1c0.3,-0.5 1.5,-0.3 2.1,-0.1" class="st7" id="path120"/>
    <path d="m234.052885,97.1c-0.7,0 -1.7,0 -2.4,-0.1c0.4,-0.4 1.9,-0.1 2.4,0.1" class="st7" id="path122"/>
    <path d="m228.152885,100.1c0.2,1 0.4,1.9 0.4,2.9c-0.4,0.2 -0.8,0.3 -1.2,0.3c0,-0.9 -0.2,-2.2 -0.1,-3c0.2,0 0.6,-0.2 0.9,-0.2" class="st28" id="path124"/>
    <path d="m226.952885,86.4c-0.4,0.2 -0.7,0.6 -1.1,0.8c-0.6,0.1 -1.3,-0.1 -1.8,-0.5c0,0 0.1,0 0.1,-0.1c0.8,0.4 1.9,-0.2 2.8,-0.2" class="st25" id="path126"/>
    <path d="m222.452885,92.2c0.2,-1 1.1,-1.5 2,-2.1c0.8,1.2 1.5,2.5 2,3.8c-1.4,-0.4 -2.7,-1 -4,-1.7" class="st32" id="path128"/>
    <path d="m227.252885,100.3c0,0.8 0.1,2.2 0.1,3c0.4,0 0.8,-0.1 1.2,-0.3c-0.1,-1 -0.2,-1.9 -0.4,-2.9c-0.3,0 -0.7,0.2 -0.9,0.2zm-8.6,-4.7c0.3,3.1 0.9,6.1 1.9,9.1c2.2,0.7 4.4,0.7 6.6,0.1c-0.4,-1.7 -0.2,-3.7 -0.4,-5.5c-0.1,-1.3 -0.1,-2.7 -0.3,-4.1c-2.6,-0.3 -5.2,-0.2 -7.8,0.4zm8.3,-0.3c0,1.4 0.1,2.8 0.2,4.3c0.6,-0.1 0.9,-0.1 1.4,-0.2c-0.1,-1.4 -0.2,-2.8 -0.5,-4.2c-0.3,-0.1 -0.7,0 -1.1,0.1l0,0zm2.8,-0.3c-0.3,0 -0.5,0 -0.8,0c0.1,1.2 0.4,2.5 0.5,3.7c0.3,0 0.6,-0.1 0.9,-0.2c0.1,-1.2 -0.1,-2.4 -0.6,-3.5l0,0zm4.3,3.9c0.9,-0.3 1.4,-1.3 1.1,-2.2c-0.1,-0.8 -0.4,-1.7 -0.7,-2.4c-0.2,-0.3 -0.8,-0.8 -1.3,-0.5c-0.8,0.5 -2.1,0.6 -2.7,1.2c0.3,1.1 0.4,2.2 0.5,3.4c1,0.1 2.1,-0.3 2.9,0.1c-0.6,0.1 -1.2,0.2 -1.8,0.4c0.7,0.2 1.4,0.2 2,0l0,0zm-7.6,-5c-0.5,-1.4 -1.2,-2.7 -2,-3.8c-0.8,0.6 -1.8,1.1 -2,2.1c1.2,0.7 2.5,1.3 4,1.7l0,0zm1.4,-4.2c0,1.4 -0.2,2.8 -0.6,4.2c0.8,-1.2 1.6,-2.4 2.3,-3.6c-0.4,-0.6 -1.1,-0.9 -1.7,-0.6l0,0zm-1.6,-0.6c-0.3,0 -0.6,0.4 -1,0.2l-0.3,0.3c0.9,1.1 1.4,2.7 2.1,4.1c0.3,-1.3 0.4,-2.7 0.4,-4.1c-0.6,0.1 -0.9,-0.4 -1.2,-0.5l0,0zm-1,-1.3c0,0.3 0,0.7 0.1,1c1.2,0.3 1,-1.8 -0.1,-1l0,0zm-1.5,-0.5c-0.7,-0.4 -1.4,-0.6 -2.1,-0.8c-0.9,-0.2 -0.8,1.2 -0.8,2c0.1,0.6 0.3,1.2 0.5,1.8c0.1,0.2 0.1,0.4 0.2,0.4c0.6,-0.1 1.1,-0.2 1.6,-0.5c0.5,-0.4 1.1,-0.8 1.6,-1.2l0,-0.5c-0.3,-0.2 -0.7,-0.3 -1.1,-0.3c0.3,-0.2 0.8,-0.2 1,-0.3l0,-0.2c-0.3,0 -0.6,-0.1 -0.9,-0.4l0,0zm-5.2,-0.9c-0.4,0.5 1.3,1.1 1.8,1.1c0,-0.3 0.2,-0.6 0.1,-0.8c-0.6,0 -1.3,-0.1 -1.9,-0.3l0,0zm5.6,0.2c0,0 0,0 0,0c0.4,0.5 1.1,0.7 1.7,0.6c0.4,-0.3 0.7,-0.6 1.1,-0.8c-0.9,0 -2,0.6 -2.8,0.2l0,0zm5.2,1.5c0,-0.5 -0.2,-1.6 -0.5,-1.8c-0.7,-0.4 -1.9,0.8 -2.4,1c0.1,0.2 0.1,0.3 0.1,0.5c0.3,-0.1 0.6,0 0.9,0.1c-0.3,0 -0.6,0.1 -0.8,0.2c0,0.3 0,0.5 0,0.8c0.8,0.2 1.6,0.3 2.4,0.3c0.2,-0.3 0.3,-0.7 0.3,-1.1l0,0zm-11.5,-1.3c-0.1,-0.1 -1.1,-1.4 -1.2,-1.3c-1.7,0.8 -3.4,1.8 -4.8,3c1.4,3.2 2,6.7 2.1,10.2c1.6,0.8 3,1.8 5.2,1.9c-0.2,-1.8 -0.5,-3.3 -0.6,-5c-0.5,-0.2 -1.3,0 -1.8,-0.1c0,-0.6 0.8,-0.3 0.8,-0.7s-0.4,-0.3 -0.3,-0.8c0.4,0.1 0.6,0.5 1,0.6c0.4,-0.8 0,-2.3 0.1,-3.1c0,-0.1 0.1,-0.7 0.4,-0.6s0,1.6 0,2.3c-0.1,0.5 0,1.1 0.2,1.6c2.1,-0.3 4.3,-0.5 6.5,-0.5c-0.6,-0.2 -1.2,-0.5 -1.7,-0.8c-0.4,-0.2 -1.5,-0.6 -1.6,-0.9c-0.2,-0.5 0.4,-0.8 0.5,-1.3c-1.1,0.6 -1.3,-0.6 -1.5,-1.3c-0.2,-0.5 -0.3,-1.1 -0.4,-1.7c-1.2,-0.5 -2.1,-0.9 -2.9,-1.5l0,0zm10.5,-1.1c1.5,-0.7 1.7,2.6 1.1,3.7c0.1,0.3 0.4,0.4 0.5,0.7c-0.8,1.4 -1.7,2.8 -2.5,4.2c0.6,-0.4 1.5,-0.1 2.2,-0.4c0.3,-0.1 0.5,-0.7 0.7,-1.2c0.6,-1.4 1.1,-2.8 1.4,-4.3c0.1,-0.4 0.2,-0.8 0.2,-1.2c-0.1,-0.5 -0.7,-0.8 -1,-1.1c-0.6,-0.5 -1,-1 -1.6,-1.5c-0.2,0.5 -0.7,0.7 -1,1.1l0,0zm-13.9,-12.9c-0.7,0.8 -0.6,2.2 -0.5,3.2c0.8,-0.6 2,-0.4 2.6,0.5c0.2,0.3 0.3,0.6 0.3,0.9c0.6,0 0.2,-0.8 0.1,-1.2c-0.4,-1.5 0.6,-3.2 0,-4.6c-1,0 -1.9,0.4 -2.5,1.2l0,0zm5,-4.5c-1.6,0.4 -3.6,1.6 -4.2,3c0.5,-0.1 0.9,-0.3 1.3,-0.4c0.2,0 0.4,0 0.6,0c0.4,-0.1 0.8,-1.1 1.1,-1.4s0.7,-0.5 0.9,-0.8c0.2,-0.1 0.4,-0.1 0.4,-0.3c0,0 -0.1,-0.1 -0.1,-0.1l0,0zm8.1,0.5c-1.6,-0.9 -4.4,-1.6 -6.1,-0.8c-1.4,0.7 -3.3,1.8 -3.9,3.3c0.6,1.4 -0.2,2.7 -0.2,4.1c0,0.8 0.4,1.4 0.4,2.3c-0.2,0.3 -0.8,0.4 -1.3,0.4c-0.1,-0.7 -0.4,-1.6 -1.2,-1.6c-1,-0.1 -1.8,0.6 -1.9,1.6c0,0 0,0.1 0,0.1c-0.1,1.1 0.8,2.9 2.1,2.8c0.5,0 0.6,-0.5 1.1,-0.5c0.3,0.6 -0.4,0.8 -0.5,1.2c0,0.2 0,0.5 0.1,0.7c0.3,1 0.7,2 1.2,2.9c0.6,0.9 1.9,1.1 3.2,1.2c0.2,-0.5 1.1,-0.5 1.7,-0.3c-0.7,-0.4 -1.4,-0.9 -1.9,-1.5c-0.7,-0.6 -1.1,-1.4 -1.3,-2.3c1.2,1.6 2.1,3 4.2,3.7c1.6,0.5 3.5,-0.2 4.7,-1.1c0.5,-0.4 0.9,-0.9 1.2,-1.4c1.4,-2.2 2,-4.8 1.9,-7.4c0,-1 -0.1,-2 -0.4,-3c-0.4,-0.8 -1.7,-1.5 -2.5,-0.8c-0.1,-0.8 0.6,-1.2 1.6,-1c-0.5,-1.2 -1.2,-2.1 -2.2,-2.6l0,0zm3,25.1c1.3,-0.6 3.6,-1.7 4.4,0c0.3,0.8 0.6,1.5 0.8,2.3c0.2,0.9 -0.2,2.8 -1.2,3.2c-0.9,0.3 -1.9,0.3 -2.8,0.1c-0.1,-0.1 -0.3,-0.3 -0.3,-0.4c-0.7,-0.1 -1.3,0.1 -1.9,0.3c0.1,0.5 -0.3,0.6 -0.6,0.7c-0.2,1 0.5,2.3 0.3,3.2c-0.1,0.6 -0.9,0.7 -1.5,0.9c0,0.3 0,0.7 0.1,1c-0.2,0.5 -0.7,0.8 -1.3,0.8c-2.1,0.3 -4.3,0.2 -6.4,-0.3c-0.5,-1.2 -0.9,-2.7 -1.3,-4.1c-1.7,0.2 -3.1,-0.8 -4.5,-1.4c-0.5,-0.2 -1.1,-0.3 -1.3,-0.7c-0.1,-0.5 -0.2,-1.1 -0.1,-1.7c-0.1,-1.6 -0.3,-3.3 -0.6,-4.9c-0.2,-0.8 -0.5,-1.4 -0.8,-2.1c-0.3,-0.7 -0.5,-1.4 -0.7,-2.2c-0.1,-1 0.8,-1 1.4,-1.5c0.9,-0.7 1.6,-1 2.6,-1.6c0.5,-0.2 0.9,-0.5 1.3,-0.8c0.2,-0.4 -0.4,-1 -0.5,-1.3c-0.2,-0.5 -0.4,-0.9 -0.4,-1.4c-0.8,-0.1 -1.4,-0.6 -1.9,-1.2c-0.8,-1.2 -1,-2.7 -0.5,-4c0,-0.1 0.3,-0.3 0.3,-0.5c0,-0.4 -0.1,-0.7 -0.1,-1.1c-0.1,-1.7 0.3,-3.2 1.4,-3.7c0.5,-1.8 2.1,-2.5 3.7,-3.4c0.6,-0.3 1.2,-0.6 1.9,-0.8c2.4,-0.9 6.1,-0.7 8.1,0.8c1.1,0.8 2,1.8 2.7,3c1.3,2.6 1.2,6.9 0.3,10c-0.1,0.5 -0.3,1 -0.5,1.5c-0.2,0.3 -0.7,1.1 -0.6,1.4s1.2,1.2 1.4,1.4c0.4,0.4 1.3,1 1.3,1.5c0,0.6 -0.2,1.3 -0.4,1.9c-0.6,1.8 -1.2,3.5 -1.8,5.1" class="st7" id="path130"/>
    <path d="m222.052885,81.3c0.1,-0.1 0.4,-0.2 1,0c0,0 -0.6,0.1 -0.6,1.2l-0.3,-0.1c0.1,0 -0.2,-1 -0.1,-1.1" class="st29" id="path132"/>
    <path d="m226.652885,90.3c0,0.2 -0.1,0.3 -0.3,0.3c-0.2,0 -0.3,-0.1 -0.3,-0.3s0.1,-0.3 0.3,-0.3l0,0c0.2,0 0.3,0.1 0.3,0.3" class="st33" id="path134"/>
    <path d="m226.952885,91.6c0,0.2 -0.1,0.3 -0.3,0.3c-0.2,0 -0.3,-0.1 -0.3,-0.3s0.1,-0.3 0.3,-0.3l0,0c0.2,0 0.3,0.2 0.3,0.3" class="st33" id="path136"/>
   </g>
  </g>
  <rect id="svg_97" height="4.5" width="83.5" class="st34" x="357.9"/>
  <g id="svg_98">
   <circle id="svg_99" r="26.5" cy="86.5" cx="494.352885" class="st0"/>
   <path id="svg_100" d="m500.052885,70.5c-0.6,-1.7 -2.4,-2.7 -4.1,-2.1c-1.7,0.6 -2.7,2.4 -2.1,4.1l8.4,25.9c0.6,1.6 2.3,2.5 4,2c1.7,-0.5 2.7,-2.2 2.2,-3.9c0,0 0,0 0,-0.1c0,0 -8.4,-25.9 -8.4,-25.9z" class="st35"/>
   <path id="svg_101" d="m487.052885,74.8c-0.6,-1.7 -2.4,-2.7 -4.1,-2.1c-1.7,0.6 -2.7,2.4 -2.1,4.1l8.4,25.9c0.6,1.6 2.3,2.5 4,2c1.7,-0.5 2.7,-2.2 2.2,-3.9c0,0 0,0 0,-0.1c0,-0.1 -8.4,-25.9 -8.4,-25.9z" class="st36"/>
   <path id="svg_102" d="m510.652885,92c1.7,-0.6 2.7,-2.4 2.1,-4.1c-0.6,-1.7 -2.4,-2.7 -4.1,-2.1l-26,8.5c-1.6,0.6 -2.5,2.3 -2,4c0.5,1.7 2.2,2.7 3.9,2.2c0,0 0,0 0.1,0c0.1,-0.1 26,-8.5 26,-8.5z" class="st37"/>
   <path id="svg_103" d="m488.152885,99.3l6.2,-2c-0.5,-1.7 -1.3,-3.9 -2,-6.2l-6.2,2l2,6.2z" class="st38"/>
   <path id="svg_104" d="m501.252885,95.1l6.2,-2c-0.5,-1.7 -1.3,-3.9 -2,-6.2l-6.2,2l2,6.2z" class="st39"/>
   <path id="svg_105" d="m506.452885,78.9c1.7,-0.6 2.7,-2.4 2.1,-4.1c-0.6,-1.7 -2.4,-2.7 -4.1,-2.1l-25.9,8.4c-1.6,0.6 -2.5,2.3 -2,4c0.5,1.7 2.2,2.7 3.9,2.2c0,0 0,0 0.1,0c0,0 25.9,-8.4 25.9,-8.4z" class="st40"/>
   <path id="svg_106" d="m483.852885,86.2l6.2,-2c-0.8,-2.3 -1.5,-4.5 -2,-6.2l-6.2,2l2,6.2z" class="st41"/>
   <path id="svg_107" d="m496.952885,82l6.2,-2c-0.8,-2.3 -1.5,-4.5 -2,-6.2l-6.2,2l2,6.2z" class="st42"/>
  </g>
  <polyline id="svg_108" points="311.6528452336788,52.79999923706055 311.6528452336788,42 218.652891010046,42 " class="st5"/>
  <polygon id="svg_109" points="316.45283302664757,51.5 311.45283302664757,60.099998474121094 306.5528391301632,51.5 " class="st6"/>
  <polyline id="svg_110" points="401.6528452336788,52.79999923706055 401.6528452336788,42 308.6528452336788,42 " class="st5"/>
  <polygon id="svg_111" points="406.45283302664757,51.5 401.45283302664757,60.099998474121094 396.5528391301632,51.5 " class="st6"/>
  <polyline id="svg_112" points="132.45289406180382,42 221.652891010046,42 221.652891010046,52.79999923706055 " class="st5"/>
  <g id="svg_113">
   <circle id="svg_114" r="26.5" cy="86.4" cx="401.652885" class="st0"/>
   <path id="svg_115" d="m404.652885,97.3l-6.8,0.5c-0.6,0 -1.1,-0.4 -1.2,-1l0,0c0,-0.6 0.4,-1.1 1,-1.2l6.8,-0.5c0.6,0 1.1,0.4 1.2,1l0,0c0.1,0.7 -0.4,1.2 -1,1.2z" class="st43"/>
   <path id="svg_116" d="m404.652885,100.6l-6.8,0.5c-0.6,0 -1.1,-0.4 -1.2,-1l0,0c0,-0.6 0.4,-1.1 1,-1.2l6.8,-0.4c0.6,0 1.1,0.4 1.2,1l0,0c0.1,0.6 -0.4,1.1 -1,1.1z" class="st43"/>
   <g id="svg_117">
    <path id="svg_118" d="m397.752885,102.2l-0.1,0c0.2,1.9 1.8,3.4 3.6,3.4c2,0 3.6,-1.7 3.6,-3.8c0,0 0,0 0,-0.1l-7.1,0.5z" class="st44"/>
   </g>
   <g id="svg_119">
    <path id="svg_120" d="m411.952885,79.3c0,-5.9 -4.8,-10.8 -10.8,-10.8s-10.8,4.8 -10.8,10.8c0,2.8 1,5.3 2.7,7.1c1.7,2.1 2.5,2.8 2.5,6.3l0,0.3c0,0.5 0.4,0.9 0.9,0.9l9.2,0c0.5,0 0.9,-0.4 0.9,-0.9l0,-0.2c0,-3.7 0.9,-4.3 2.8,-6.7l0,0c1.7,-1.8 2.6,-4.2 2.6,-6.8z" class="st45"/>
    <path id="svg_121" d="m409.552885,86.2l0.1,-0.2c0,0 -0.1,0.1 -0.1,0.2l0,0z" class="st45"/>
   </g>
   <path id="svg_122" d="m411.952885,79.3c0,-5.9 -4.8,-10.8 -10.8,-10.8l0,25.4l4.6,0c0.5,0 0.9,-0.4 0.9,-0.9l0,-0.2c0,-3.7 0.9,-4.3 2.8,-6.7l0,0c1.6,-1.8 2.5,-4.2 2.5,-6.8z" class="st46"/>
   <path id="svg_123" d="m405.752885,99.6l0,-0.4c0,-0.5 -0.5,-0.9 -1,-0.9l-3.5,0.3l0,2.3l3.7,-0.3c0.4,0 0.8,-0.5 0.8,-1z" class="st47"/>
   <path id="svg_124" d="m405.752885,96.3l0,-0.3c0,-0.5 -0.5,-0.9 -1,-0.9l-3.5,0.3l0,2.2l3.7,-0.3c0.4,0 0.8,-0.5 0.8,-1z" class="st47"/>
   <path id="svg_125" d="m404.852885,101.7l-3.6,0.3l0,3.6c2,0 3.6,-1.7 3.6,-3.9c0,0.1 0,0.1 0,0z" class="st48"/>
   <circle id="svg_126" r="6.7" cy="79.5" cx="401.252885" class="st3"/>
   <path id="svg_127" d="m401.252885,72.8l0,13.4c3.7,0 6.7,-3 6.7,-6.7c-0.1,-3.7 -3,-6.7 -6.7,-6.7z" class="st4"/>
   <path id="svg_128" d="m406.352885,83.8c1.3,-1.6 1.8,-3.6 1.5,-5.5l-6.6,1.2l-4.3,5.1c2.8,2.4 7,2 9.4,-0.8z" class="st49"/>
  </g>
  <rect id="svg_129" height="4.5" width="83.5" class="st34" x="447"/>
  <g id="svg_130">
   <polyline id="svg_131" points="494.35285744071007,52.79999923706055 494.35285744071007,42 401.35285744071007,42 " class="st5"/>
   <polygon id="svg_132" points="499.1528452336788,51.5 494.1528452336788,60.099998474121094 489.25285133719444,51.5 " class="st6"/>
  </g>
  <text font-weight="bold" xml:space="preserve" text-anchor="start" font-family="Helvetica, Arial, sans-serif" font-size="10" id="svg_133" y="19.125012" x="4.499998" stroke-width="0" stroke="#000" fill="#000000">THINK</text>
  <text style="cursor: move;" font-weight="bold" xml:space="preserve" text-anchor="start" font-family="Helvetica, Arial, sans-serif" font-size="10" id="svg_134" y="19.125012" x="90.509069" stroke-width="0" stroke="#000" fill="#000000">CODE</text>
  <text style="cursor: move;" font-weight="bold" xml:space="preserve" text-anchor="start" font-family="Helvetica, Arial, sans-serif" font-size="10" id="svg_135" y="19.125012" x="181.014585" stroke-width="0" stroke="#000" fill="#000000">DELIVER</text>
  <text style="cursor: move;" font-weight="bold" xml:space="preserve" text-anchor="start" font-family="Helvetica, Arial, sans-serif" font-size="10" id="svg_136" y="19.125012" x="269.77725" stroke-width="0" stroke="#000" fill="#000000">RUN</text>
  <text style="cursor: move;" font-weight="bold" xml:space="preserve" text-anchor="start" font-family="Helvetica, Arial, sans-serif" font-size="10" id="svg_137" y="19.125012" x="358.782858" stroke-width="0" stroke="#000" fill="#000000">LEARN</text>
  <text style="cursor: move;" font-weight="bold" xml:space="preserve" text-anchor="start" font-family="Helvetica, Arial, sans-serif" font-size="10" id="svg_138" y="19.125012" x="447.284262" stroke-width="0" stroke="#000" fill="#000000">CULTURE</text>
  <text font-weight="bold" xml:space="preserve" text-anchor="start" font-family="Helvetica, Arial, sans-serif" font-size="10" id="svg_139" y="127.877583" x="5.588572" stroke-width="0" stroke="#000" fill="#000000">ISSUE TRACKER</text>
  <text font-weight="bold" xml:space="preserve" text-anchor="start" font-family="Helvetica, Arial, sans-serif" font-size="10" id="svg_140" y="141.95139" x="26.666905" stroke-width="0" stroke="#000" fill="#000000">GitHub</text>
  <text font-weight="bold" xml:space="preserve" text-anchor="start" font-family="Helvetica, Arial, sans-serif" font-size="10" id="svg_141" y="127.877583" x="100.291182" stroke-width="0" stroke="#000" fill="#000000">REPOSITORY</text>
  <text font-weight="bold" xml:space="preserve" text-anchor="start" font-family="Helvetica, Arial, sans-serif" font-size="10" id="svg_142" y="141.95139" x="114.745076" stroke-width="0" stroke="#000" fill="#000000">GitHub</text>
  <text font-weight="bold" xml:space="preserve" text-anchor="start" font-family="Helvetica, Arial, sans-serif" font-size="10" id="svg_143" y="127.877583" x="201.633147" stroke-width="0" stroke="#000" fill="#000000">JENKINS</text>
  <text style="cursor: move;" font-weight="bold" xml:space="preserve" text-anchor="start" font-family="Helvetica, Arial, sans-serif" font-size="10" id="svg_144" y="240.301091" x="112.303061" stroke-width="0" stroke="#000" fill="#000000">WEB IDE</text>
  <text style="cursor: move;" font-weight="bold" xml:space="preserve" text-anchor="start" font-family="Helvetica, Arial, sans-serif" font-size="10" id="svg_146" y="127.877583" x="290.889884" stroke-width="0" stroke="#000" fill="#000000">BLUEMIX</text>
  <text font-weight="bold" xml:space="preserve" text-anchor="start" font-family="Helvetica, Arial, sans-serif" font-size="10" id="svg_145" y="127.877583" x="381.006857" stroke-width="0" stroke="#000" fill="#000000">DEVOPS</text>
  <text style="cursor: move;" font-weight="bold" xml:space="preserve" text-anchor="start" font-family="Helvetica, Arial, sans-serif" font-size="10" id="svg_147" y="141.573727" x="377.675361" stroke-width="0" stroke="#000" fill="#000000">INSIGHTS</text>
  <text style="cursor: move;" font-weight="bold" xml:space="preserve" text-anchor="start" font-family="Helvetica, Arial, sans-serif" font-size="10" id="svg_148" y="127.877583" x="477.448319" stroke-width="0" stroke="#000" fill="#000000">SLACK</text>
 </g>
</svg>